<?xml version="1.0" encoding="UTF-8"?> <svg xmlns="http://www.w3.org/2000/svg" viewBox="0 0 711.04 490.02"><g fill="#bcb284"><path d="m686.56 465.17c-.53-4.76-1.16-9.67-6-12.79-2-1.33-4.54-1.84-6.21-3.47a34 34 0 0 1 -6.82-8.64c-2.23-4.29-5.21-8.2-9.74-10.34-5.4-2.56-8-7.57-11.2-12.05h.09c-3.54-4-8.7-5.65-12.67-9h.07c-1.31-.8-2.58-1.65-3.93-2.37-2.75-1.47-7-.87-7.18 1.14-.18 2.35-1.63 4.55-1.52 6.52.24 4.48-2.23 3.52-4.65 3.09a9.37 9.37 0 0 1 -3.08-1.09c-3-1.69-5.41-1.49-7.36 1.51-1.59 2.44-3.23 2.19-4.93.08-.62-.77-1.4-1.4-2-2.15-2.46-2.9-5.19-3.7-8.66-1.62-2.26 1.35-5.25 2-7.19.32-4.42-3.74-9.76-1.05-14.51-2.72-3.08-1.08-5-2.69-5.78-5.36-1-3.19-3.89-6.4-7.21-6-3.47.42-6.11-.68-8.76-2.61a41.63 41.63 0 0 0 -11.44-5.64c-1-.35-2.09-.61-2.66-1.72-2.21-4.37-5.75-7.66-9-11.21-1.86-2-3.78-3.58-6.67-3.48-3.45.11-5.07-2-5.31-5a9.24 9.24 0 0 0 -4-6.82c-5.31-4.11-9-9.74-13.82-14.38-2.11-2-4.2-4-6.92-4.74-5.59-1.6-8.79-5.43-10.44-10.64a23.9 23.9 0 0 0 -8.19-12 293.25 293.25 0 0 1 -27.87-23.99c-5.54-5.57-11.71-9.8-19.43-11.61a24.29 24.29 0 0 1 -11-5.63 20.71 20.71 0 0 0 -9.64-4.66c-3.18-.64-5.49-1.66-7.36-4.19-1.64-2.22-4.17-2.73-6.69-3.64-5.92-2.13-13.55-1.45-16.56-9a1.84 1.84 0 0 0 -1-.8c-2.72-1.06-4.67-3.27-7.12-4.69-2.13-1.24-2.73-3-2-4.93 1.14-2.91.27-4.84-2-6.49l.05.06c-3.4-1.27-7.69-2.64-8.58-5.9-1-3.75-3-3.69-5.62-3.88-2.31-3-4.46-6.2-7-9-2.66-3-2.23-6-.72-9.09a31.72 31.72 0 0 1 4.06-6.35 6.34 6.34 0 0 0 1-7 46.87 46.87 0 0 1 -3.61-19.35c.26-5.55-1.43-10.27-3.75-15-.35-.73-1.32-1.73-.55-2.36 3.06-2.51 1.4-6 2-8.93.34-1.66.29-3.17 2-4.51 5.17-4.12 9.17-9 8.44-16.31-.27-2.79-1.26-5.49-1.4-8.17-.19-3.72 5.47-8.31 9.24-7.48 4.78 1.06 7.76-.85 10.32-4.44a30.18 30.18 0 0 1 3-3.49c2.3-2.33 5.31-3.16 8.11-1.82 4.78 2.28 10 1.34 15 2.58 4.3 1.08 9.12.55 13.56 1.81 3.87 1.09 7.75.94 11.69.65 1.79-.13 3.12-1.56 5-1.38a3.39 3.39 0 0 0 3.87-2.72 3.49 3.49 0 0 1 2.54-2.78c5.79-1.13 11.26-1.17 15.53 4 1.73 2.08 3.53 3.48 5.95.1 1.06-1.47 2.64-2.58 3.39-4.48.56-1.42 2.19-2 3.67-2 2.4 0 .66 1.69.94 2.58s.91 1.65 1.58.79c.92-1.16 2.26-1.15 3.31-1.82.69-.43 1.82-1.14 1.23-2-2.08-3.14-.34-4.75 2-6.55a6.35 6.35 0 0 0 2.06-3.64 5.63 5.63 0 0 1 3.25-4.22 9.16 9.16 0 0 0 3.94-3.6c1.24-1.79 2.76-3.07 5-.74 1.17 1.23 3 2.27 4.77 1.26 2.46-1.38 5.14-2.73 7-4.74 2.31-2.49 4.61-2.15 6.64-.61 2.71 2 4.6.59 5.2-1.41 1-3.4 3.69-5.32 5.47-8 .89-1.35 2.41-2.42 2.5-4.16.22-4.8 2.75-7.11 7.33-8.38 1.36-.38 5.59 0 4.49-4.12-.07-.25 1.12-.68 1.4-1.2 1-1.77 3.94-1.66 4-4 .07-3.08 1.93-4.25 4.4-5.28 3.38-1.42 4.65-6.68 2.5-9.65-2.73-3.76-2.41-7.42 1.12-10.63 1.24-1.13 1.66-2.23.25-3.2-2.43-1.66-4.32-3.94-7.31-5.06-1.36-.51-3-2.38-4.32-3.91-2.38-2.75-3.3-7.11-8.5-7a9.29 9.29 0 0 1 -8.64-5.83l-1.32.1c1.27 4.07 4.75 6 8.3 6.55s6 1.84 7.71 4.87c.47.81 1.37 1.19.79 2.46a1.21 1.21 0 0 0 1.52 1.72c1.62-.67 1.88.4 2.43 1.29.44.73.76 1.34 1.91 1.43 2.63.19 4 2.71 6.21 3.8.71.36.53 1 0 1.62-4.51 6-4.53 6.78-.2 13.66.55.88.73 1.66 0 2.35-1.42 1.38-1.85 3.57-4.25 4.26-1.43.41-3.3 2-3.3 3.39 0 3.51-3 4.26-4.76 6.09-.51.53-1.38.76-1.55 1.59-.42 2.11-2 2.55-3.77 3.34-2.92 1.33-7 1.59-7.2 6.3-.12 3.63-2.36 6.25-4.66 8.79-1.46 1.61-2.89 3.17-3.44 5.46-.42 1.75-1.46 2.78-3.63 1.31s-4.78-2.45-6.93-.3c-1.9 1.91-4.33 3-6.31 4.65s-3.9 1.41-5.51-.36c-2.43-2.67-4.49-1.18-6 .71a13.53 13.53 0 0 1 -4.19 3.92 6.9 6.9 0 0 0 -3.76 5 5.61 5.61 0 0 1 -2.89 4.17c-2.29 1.14-2.94 2.67-1.73 5 .33.65 1.13 1.68-.25 2.16a1.72 1.72 0 0 1 -2.28-.61c-1.1-1.62-2.57-1.51-4.35-.94a5 5 0 0 0 -3.72 3.71c-1.12 3.61-4.74 5.29-6.38 3.31-4.44-5.38-10.11-6.3-16.51-4.87-1.07.24-2.46.48-2.76 1.56-.83 3.07-3 3.77-5.79 4.44-3.76.89-7.43 1.69-11.24.85-8.58-1.9-17.35-2.43-26.05-3.48a13.9 13.9 0 0 1 -4.72-1 8.23 8.23 0 0 0 -9.9 1.72c-1.67 1.74-3.25 3.58-4.75 5.46-1.79 2.24-4.08 2.76-6.75 2.29-3.61-.64-8.7 1.8-10.52 5-.88 1.55-2 3.28-1.26 4.93 1.11 2.53.9 5.14 1.31 7.71.95 6-2.44 10.57-6.49 13.5-3.48 2.52-3.78 5.08-3.78 8.45 0 1.75.36 3.7-.95 5-1.81 1.82-1.24 3.42-.29 5.32 2.11 4.23 3.81 8.54 3.63 13.45-.21 5.75.15 11.47 2.48 16.9 1.75 4.07 2.41 8.07-1.33 11.64-1 .94-1.43 2.45-2.21 3.64-2.67 4.1-2.54 7.19.49 11 1.76 2.23 3.31 4.67 5.27 6.7a2.16 2.16 0 0 1 .8 1.64 5.26 5.26 0 0 1 1.57.25c-.16-.21.09-.2.26-.24 0 .1-.07.2-.1.3a5.6 5.6 0 0 1 1.66.95 5.37 5.37 0 0 1 1.35 1.46.94.94 0 0 1 .44-.89 8.77 8.77 0 0 0 1.37 3.2c2.2 3 5.47 4.26 8.54 5.83 1.68.87 2.81 1.92 2 3.81-1.39 3.48.07 5.58 2.66 7.88 3 2.67 8 3.39 8.74 8.56.13 1 1.75 1.55 3.05 1.57a3 3 0 0 1 2.55 1c3.77 1 7 3.53 11.09 3.71 2.67.12 4.42 1.73 5.91 3.7a8.59 8.59 0 0 0 5.94 3.65 21.37 21.37 0 0 1 10.88 4.88c2.75 2.33 5.77 4.36 9.1 5.07a38.77 38.77 0 0 1 22.35 13.42c3 3.6 5.26 7.83 4.34 13.05a16.93 16.93 0 0 0 2.28 12.62c2.12 3.23 1.37 6.4-.67 9.13a23 23 0 0 0 -3.39 6.66 22.22 22.22 0 0 1 -4 7.77c-2.44 2.8-3.28 9-1.41 10.65 3.15 2.78.43 4-1.28 5.14a16.37 16.37 0 0 0 -4.38 4.32c-3.93 5.54-3.75 12.73-7.48 18.34-.21.31-.07.85-.12 1.29-.63 5.37-.5 10.53 3.81 14.62.48.46 1 1.12.57 1.69-.22.27-1 .09-1.58.06 2.17 1.59 3.66 3.85 5.54 5.71 1.15 1.15 2.21 2.61 4 2.76 3.59.3 6.95 1.76 10.6 1.86a5 5 0 0 1 4.89 6 3.16 3.16 0 0 0 .15 1.94c1 1.66.48 2.92-.41 4.5-2.15 3.81-.86 9.86 2.6 12.67a19.2 19.2 0 0 1 5.83 8.47c1 2.58 1.57 5.31 3.66 7.58 1.77 1.92 2.94 4.79.6 7.42-1 1.16-.19 2 .2 3 1.74 4.24 3.26 8.77 2 13.17-.92 3.28-.84 5.4 1.91 7.34.65.45 1.1 2 1.88 1.2s-.46-1.75-1.16-2.26c-2.14-1.55-2.71-3.24-1.14-5.56.37-.54.06-1.5.16-2.24.6-4.27-1-8.08-2.35-12-.24-.7-.79-1.31-.16-2.11 2.52-3.27 1.08-6.49-.93-9-1.78-2.26-2.54-4.77-3.51-7.28a20.35 20.35 0 0 0 -5.8-8.56c-2.88-2.42-4.34-7.2-2.92-10.4 1-2.3 2.3-4.41.76-6.93a1.11 1.11 0 0 1 0-1c1.85-3-.44-4.27-2.29-5.81s-4.38-1.65-6.75-2.08c-4.49-.83-9.24-1-12.54-5.18-1.51-1.91-1.33-4.33-2.9-6.12-4.89-5.57-4.68-11.68-1.59-18a29.86 29.86 0 0 0 2.2-6.13c1.2-4.88 2.68-9.68 7.76-12.15 2.12-1 2.42-3.28 3.21-5.12.67-1.55-1.11-1.52-1.92-2.07a1.83 1.83 0 0 1 -.72-2.05c.92-3.15.66-6.81 3.75-9.06 1.44-3.6 2.22-7.71 4.49-10.68 3.46-4.52 4.41-8.71 1.59-13.66l.08.08a9.82 9.82 0 0 1 -2-7.85c.43-3.75.92-7.43-1-10.95l-.36-1.05c.58-.13.51.42.72.68 7.5 6.26 15 12.55 22.52 18.75a20 20 0 0 1 6.32 9.06c2.19 6.48 5.63 11.38 12.69 13.1a7.09 7.09 0 0 1 3.82 2.43c3.09 4.26 8 6.83 10.61 11.51a5.79 5.79 0 0 0 2 2.12 13.45 13.45 0 0 1 7.11 10.08c.44 3 2.36 4.4 5.42 4.72 1.54.16 3.3-.21 4.66 1.16 3.79 3.8 7.7 7.51 10.27 12.3a5.76 5.76 0 0 0 3.49 2.76 46.72 46.72 0 0 1 12.56 6.31 10.73 10.73 0 0 0 8 2.16c2.53-.27 5.22.76 5.88 3.59 1.37 5.82 8 10.45 13.57 8.61 2.49-.82 4.08-.26 6 .92 2.84 1.73 6 2.57 9.05.81 3.68-2.1 6.59-1.72 9 1.83a18.24 18.24 0 0 0 1.9 1.82c2.16 2.27 4.18 2.32 5.83-.48 1.5-2.53 3.57-2.84 5.86-1.51 2 1.15 4.14 1.34 6.26 1.82 1.7.39 3.23-.34 3.27-1.85.07-2.49 1.21-4.59 1.7-6.9.64-2.93 2.53-4.34 5.15-2.65 5.75 3.71 12.2 6.44 16.73 12 2.88 3.52 4.86 8 9.17 10.16 5.47 2.81 9.16 7.2 12.07 12.51 2.33 4.23 5.42 7.64 10.2 9.59a9.87 9.87 0 0 1 6.23 6.72c.71 2.68 1 5.4 1.59 8a11.94 11.94 0 0 1 1.32-.7c.03-.15 0-.44-.04-.76z"></path><path d="m336.8 227.88a1.84 1.84 0 0 0 -.16-1.26c-.85-1.92-2.35-2.91-4.13-1.48-2.05 1.65-4.05 2.75-6.75 2.22-1.35-.26-2.15.87-3.17 1.46-1.63.94-6.15 0-6.56-1.58-.76-2.85-2.16-2.63-4.39-1.71-4.15 1.72-5.69 3.66-5.85 8.15-.15 4.24-1.93 6-6.13 6.06a31.28 31.28 0 0 1 -12.73-2.74c-5.87-2.48-6.46-3.65-6.06-10a5 5 0 0 0 .08-.65c-.12-3.58.91-7.83-.66-10.59-2.42-4.24-2.92-9.25-6.26-13.13-1.79-2.08-3.18-3.07-5.68-2.47a24.3 24.3 0 0 0 -4.38 1.31 7.73 7.73 0 0 1 -7.7-.45c-2-1.25-4-2.07-6.47-1.62-3 .54-6.07 1.3-8.63-1.44-.44-.48-1.66-.35-2.52-.31-3.29.16-6.59.72-9.86.54-5.68-.3-11 1.74-16.32 2.83-3.85.79-8.26 1.19-11.67 3.89a2.17 2.17 0 0 1 -2.76-.32 21.54 21.54 0 0 0 -8-3.67c-7.43-2.08-12.58-7.55-17.55-12.71a48.44 48.44 0 0 0 -6.05-5.76c-1.92-1.41-4-3-6.28-3.43-7.07-1.28-14.53-6.33-17.64-12.52a2 2 0 0 0 -1.32-.87c-3.3-.5-4.17-3.29-4.33-5.69-.31-4.66-2.44-8.29-5.21-11.7a5.73 5.73 0 0 1 -1.44-4.81c.48-3.17-.82-5.62-3.16-7.79-2-1.83-4.36-4-4.45-6.63-.13-4.16-2.07-7-4.7-9.71a3.18 3.18 0 0 1 -.91-2.06c-.43-5.79-2.67-11.32-2.53-17.2a4.9 4.9 0 0 0 -3.06-5c-3.2-1.28-2.6-3.17-1.3-5.4l-2.17 1.9c-.91 1.16-1.25 2.2-2.69 1.57-4.35-1.9-8.57.64-13 .4-2.73-.15-6.04 1.49-9.05 2.49-5.23 1.74-10.52 3.5-15.6-.5-.9-.71-1.62.11-2.43.35-4 1.16-7.57 4-12.1 3.53a2.24 2.24 0 0 0 -1.27.23c-4.25 2.26-8.28 1.58-12.24-.8a18.62 18.62 0 0 0 -3-1.42 265.44 265.44 0 0 0 -31.56-10.29 26.21 26.21 0 0 1 -4.75-1.34l-.25.73c3.66 1.72 7.37 3.31 11.54 3.67 4.75.42 8.52 4 13.27 4.48a32.81 32.81 0 0 1 14.27 5.54c6.47 4.28 12.66 1.21 18.71.18 2.5-.43 5.93-1.18 8.24-3.37.79-.75 1.42.11 2 .47 3.82 2.29 7.73 2.1 12 1.15 5.27-1.19 10.1-4.74 15.93-3.2.32.08.75-.4 1.15-.54 5.1-1.68 9.87-.54 14.41 1.87a4.12 4.12 0 0 1 1.9 3.65 39.08 39.08 0 0 0 .5 6.23c1.27 5.95.58 12.6 6 17.14a3.19 3.19 0 0 1 1 2.71c-.29 4.31 2.42 7.1 5.11 9.8 2.06 2.06 3.35 4.27 2.82 7.23a6.38 6.38 0 0 0 1.68 5.39c2.29 2.87 4.85 5.82 4.7 9.79-.22 5.38 4.13 8.11 7 11.27 1.75 1.94 4.64 3.35 6.61 5.55a15.4 15.4 0 0 0 11 5.05 5.62 5.62 0 0 1 1.85.44c5.45 2.22 8.91 6.77 12.7 10.86a41.68 41.68 0 0 0 14.64 10.2c4.13 1.75 9.31 1.95 10.49 7.71 0 .08.29.12.5.16-.92-1.61-1.31-2.6 1.19-3.73 7-3.18 14.56-4.24 21.93-5.85 4.67-1 9.62-.74 14.44-1.21 2.21-.22 4.09.06 5.74 1.67 1 1 2 1.06 3.54.6 2.78-.83 5.74-1.29 8.52.57a9.19 9.19 0 0 0 9.44.74c2.15-.92 5.55-2.69 7.3-.28 5.14 7.1 8.3 15 7.58 24.12-.26 3.39-.91 7.52 2.63 9.63a33.5 33.5 0 0 0 17.67 5.08c4.54-.07 7-2.78 7.15-7.41a10.55 10.55 0 0 1 1.28-5c1.07-1.82 5.38-2.83 6.1-1.5 2 3.74 5.52 4.72 9 2.34a3.62 3.62 0 0 1 2.71-.85c2.49.48 4.34-.45 6.19-2 1.46-1.24 2.85-1 3.21 1.26.19 1.24 0 3.65 1 3.38 1.91-.48-.45-2.33.16-3.6z"></path><path d="m333.94 13.2-.66.05z"></path><path d="m467.54 281.38a73.49 73.49 0 0 0 -10.07 9.32c-2.2 2.29-1 5.3-.86 7.9.22 3.8-1.65 6.1-4.23 8.3-.67-.71-.07-1.1.24-1.39a9.8 9.8 0 0 0 2.93-9.53c-.71-3.52.61-6.13 3.3-8.3 1.43-1.17 2.6-2.7 4.08-3.8 2.54-1.89 3.31-4 1.65-6.86l-.06.06c1.77.92 2 2.9 3 4.37z"></path><path d="m414.14 240.52c-6.79-3.85-13.45-8-20.44-11.42-4.13-2-8.88-2.3-13.55-1.76h.06a18.42 18.42 0 0 1 15 1.55 41.74 41.74 0 0 0 6.74 3.32c4.78 1.68 8.36 5.15 12.17 8.27z"></path><path d="m480.59 373.64a35.61 35.61 0 0 1 11 1.48 4.22 4.22 0 0 0 4.92-1.44 117.66 117.66 0 0 1 8.56-9c-3 3.86-5.85 7.83-9.61 11.05a1.92 1.92 0 0 1 -1.78.54c-4.35-.91-8.7-1.78-13.05-2.66z"></path><path d="m641.94 389.83c1.73-1.85 3.37-2.63 4.77.35 1.32 2.81 3 .48 4.51.27l-.05-.05c-2.37 1.67-2.13 3.27-.79 5.82 2 3.86 5 8 1.25 12.6a6.34 6.34 0 0 1 -1 .78h.05c.17-2.28 2.94-3.89 2-6.35a54.58 54.58 0 0 0 -5.59-11.44c-1.43-2.08-2.78-3.11-5.22-2.08z"></path><path d="m592 144.33c2.45.48 3.19 2.28 4.52 4.25 2.82 4.21 4.59 9.85 10.7 11.11a4.64 4.64 0 0 1 3.36 2.36v-.06c-7.91-1.85-12.37-7.36-15.11-14.52-.69-1.81-2.89-1.53-3.46-3.2z"></path><path d="m433.1 246.38c3.74.86 6.67 2.47 8.52 6.28 2 4.06 4.05 8.25 8 11v-.06a4.41 4.41 0 0 1 -3.9-2.51c-1.42-2.56-4-4.38-4.55-7.52-.81-4.37-5.35-4.84-8-7.25z"></path><path d="m591.35 143c-2.74-3.57-5.06-7.23-9.64-9.32-2.69-1.23-4.39-5-4.36-8.72h-.05c.72-.09 1.36 0 1.35.91 0 4.18 2.25 6.49 5.84 8.39a13 13 0 0 1 6.8 8.75z"></path><path d="m422.92 338.4c3.08 1.87 5.76 3.74 7.42 7.45 1 2.3 2.78 5.64 6.43 6 .3 0 .83.67.76.81-.21.49-.7.25-1.13.17-3.46-.67-5-3.8-6.47-6.19-1.71-2.79-3.42-5.22-6.19-6.93-.4-.25-.54-.89-.81-1.35z"></path><path d="m674 290.78c.73-2.06 3.13-2.9 3.62-5.19.93-4.27.05-7.88-3.5-10.65v.05l2.83.45.06-.06c-.48 1.21.39 2.07.81 3 2.12 4.78.68 9.45-3.83 12.33z"></path><path d="m707 378.1c-.58-1.59-1.7-3.55-1.73-4.65-.13-4.05-3.54-7.23-2.63-11.37h-.06c.28 2.51 2.33 4.6 2.38 6.92.06 3.25 3.49 5.63 2 9.09z"></path><path d="m377.87 311.42c-1.83 2.23 1 4.5 0 6.7a20.69 20.69 0 0 0 -1.31 6.56 9.61 9.61 0 0 0 .59 3.31l.05-.05c-1.47-.58-1.55-1.3-1.51-3.07.07-3.4 2.74-6.6.71-10.2-.62-1.11.25-2.5 1.49-3.26z"></path><path d="m634 407.58c-2.83-2.85-4.53-6.67-8.53-8.59-1.38-.66-.82-3.5.19-5.28.14 2.31-.44 4.35 2.49 6.17 2.53 1.58 5.35 4.12 5.85 7.8z"></path><path d="m652.94 213.71c-2.36-3.26-2.5-7.26-3.36-11-.61-2.63-.92-5.32-2-7.82 1.87 1.08 1.91 3 2.17 4.81a92.71 92.71 0 0 0 3.24 13.94z"></path><path d="m375.86 267.93c-.76 2 .27 3.15 1.66 4.43 1.6 1.48 3.72 3.09.54 5.33-1.9 1.35 1 2 .77 3.21h.05c-2.07-1.05-3.25-2-.76-4.15 1.94-1.67-.59-2.62-1.27-3.84-.85-1.54-3.88-2.64-.93-4.89z"></path><path d="m414.13 240.53c4.22 2.58 9.14 2.5 13.75 3.62.92.22 2-.06 2.43 1.14-4-.74-8.05-1.42-12.05-2.24-1.63-.33-3.54-.38-4.16-2.48z"></path><path d="m664.12 227.54c1.48 3-.2 6.18.24 9.3a1.9 1.9 0 0 1 -2.89 1.92 6.78 6.78 0 0 0 -3.89-.19v.05a2.52 2.52 0 0 1 2.45-.68c3.68.74 3.95-1.38 3.83-4.17-.09-2.06.17-4.13.27-6.19z"></path><path d="m384.81 333.4c5.82.45 11.31 3.81 17.4 2l-.06-.05c-2.09 2.14-4.79 1-7.07.91-3.52-.09-6.92-1.53-10.22-2.9z"></path><path d="m449 324.52c.08-.2.22-.58.23-.57 5 1.59 10.27 2.31 14.71 5.35l-15-4.88z"></path><path d="m659.52 248.29 7.48 11.33v-.06c-2-1.14-3.74-2.49-4.15-4.94a2.43 2.43 0 0 0 -1.48-2c-2.28-.84-2.25-2.52-1.84-4.41z"></path><path d="m673.8 382.71c-2.68.36-5.31.44-8 1.49-3 1.2-4.61-1.54-6.09-3.73v.07a1.77 1.77 0 0 1 1.86 1c1.41 2.38 3.29 2.24 5.61 1.47 2.1-.7 4.35-1.17 6.58-.3z"></path><path d="m695.57 348.06c2.58 2.18 6.19 3.16 7.37 7 .6 1.93 1.07 3.68.19 5.58h.07c0-4.41-1.05-8.24-5.66-10.13a3.27 3.27 0 0 1 -1.91-2.51z"></path><path d="m380.33 283.49c1 .65 2.49 2.23.77 2.44-5.14.6-3.69 4.66-4.65 7.45a4.3 4.3 0 0 0 .13 1.61l.06-.06c-1.55-3.55-.28-7.93 2.94-9 1.79-.63.83-1.55.8-2.45z"></path><path d="m567 111.17c.81 0 1.8.09 1.87.93.33 4.38 4.05 6.52 6.17 9.71v-.06c-3.51-1.35-5-4.49-6.44-7.57a16.57 16.57 0 0 0 -1.6-3.07z"></path><path d="m627.56 392.26a3.4 3.4 0 0 1 3.7-2c3.61.58 7.13-.12 10.68-.39l-.07-.05c-1.37 1.46-3.14 1.09-4.86 1.15-3.21.11-6.54-.57-9.52 1.27z"></path><path d="m442.82 348.8a3.45 3.45 0 0 1 2.56 1.63 13 13 0 0 0 5.49 3.81c.62.23 2.33.13 1.14 1.71l.06.05c-3.43-2-7-3.7-9.2-7.25z"></path><path d="m683.85 324.48a44.94 44.94 0 0 0 4.32 12.84l.05-.05c-3.75-3.51-4.13-8.15-4.31-12.85z"></path><path d="m692.29 383.28c0 1.5-.39 2.59-2.23 2.3a1.8 1.8 0 0 0 -2 .7c-1.57 2.66-3.74 1.72-5.87 1v.06c4.07.31 6.94-2.41 10.23-4.05z"></path><path d="m674.91 312.69c1.17.66 1.33 1.92 1.5 3 .46 2.94 2.76 4.45 4.59 6.35v-.06c-4.88-1.26-5-5.62-6.08-9.35z"></path><path d="m550.41 101.15c-1.89-3.16-5.11-5.31-6.6-8.77v.07c2.66 2.57 5.64 4.9 6.6 8.76z"></path><path d="m372.05 227.79a33.5 33.5 0 0 1 -6.9 4.7c-.6.33-1.26 1.11-1.82-.07l-.05.06c2.28-.59 4-2.1 5.89-3.42a4.6 4.6 0 0 1 2.93-1.23z"></path><path d="m672.42 296.28c2.24 1.83 1.93 4.29 1.21 6.55a6.51 6.51 0 0 0 -.29 3.79v-.05a2.24 2.24 0 0 1 -.79-2.89c1.69-2.61.39-5-.13-7.45z"></path><path d="m472.73 366.3c-2.55-2.35-6.23-2.53-8.92-4.63v.06c3.2 1.09 7 1 8.9 4.63z"></path><path d="m452.37 360c3.72 1.13 7.79-.08 11.4 1.75v-.06l-9.6-.66a1.84 1.84 0 0 1 -1.79-1.09z"></path><path d="m671.76 268.37c-.26-.45-.8-.93-.75-1.34a6.78 6.78 0 0 0 -4-7.47v.06c3.24.25 4.49 2.13 4.41 5.23a30.71 30.71 0 0 0 .31 3.57z"></path><path d="m625.79 178.72c-1.59 0-2.53-.62-2.2-2.33.46-2.32-.84-3.82-2.31-5.27v.06c2.1.06 2.63 1.5 2.89 3.22s.39 3.18 1.62 4.39z"></path><path d="m377.86 311.41c2.74-2 1.55-5.72 3.4-8.13h-.06c-.77 2.86.66 6.63-3.33 8.18z"></path><path d="m650.65 409.6c-1.81 2.53-1.91 5.9-4 8.28h.09c.83-3 1.07-6.28 4-8.27z"></path><path d="m643.4 192.59a39.26 39.26 0 0 0 -6.94-4.78v.06a7.3 7.3 0 0 1 6.93 4.78z"></path><path d="m413 329.92c3.43.69 4.57 3.77 6.39 6.14l.06-.07c-2.7-1.46-4.15-4.21-6.4-6.14z"></path><path d="m550.36 101.21c2.6.54 5.51.44 6.87 3.44v-.06l-6.87-3.44z"></path><path d="m655.33 244.56c-2.44-4.08-1.88-5.53 2.3-5.95-3.26 1.07-3.4 3.33-2.31 6.05z"></path><path d="m695.63 348-5.69-4.83-.05.05c3 .3 4.5 2.39 5.68 4.83z"></path><path d="m466.69 331.12a12.91 12.91 0 0 1 5 4.9l.05-.06c-2.31-1-3.64-2.95-5-4.9z"></path><path d="m707 378.05c.75 4.3-.49 5.17-5.41 3.82l-.05.06c2.73 0 5.68.32 5.52-3.83z"></path><path d="m514.78 76.79c2 .79 4.94-1 6.11 2.19-1.51-2.22-4.58-.05-6.13-2.17z"></path><path d="m380.15 227.34c-2.63 1.37-5.38.47-8.09.45 2.63-1.32 5.43.2 8.11-.45z"></path><path d="m631.38 182.26a12.21 12.21 0 0 1 -5.59-3.54v.07a9.18 9.18 0 0 1 5.59 3.52z"></path><path d="m632 182.93c1.85 1.3 2.07 4 4.38 4.94v-.06c-3.29 0-3.55-2.73-4.37-4.94z"></path><path d="m659.75 380.47c-2.12-.42-3.86 1.06-5.88 1.16v.05c1.83-.86 3.34-3.39 5.78-1.14z"></path><path d="m675.86 384.61 6.25 2.77v-.06a7.1 7.1 0 0 1 -6.24-2.77z"></path><path d="m652.93 213.72c2.5 1.06 2.17 4 3.72 5.67l.06-.06c-2.44-1.09-2.25-3.93-3.77-5.62z"></path><path d="m674.15 274.94a12.9 12.9 0 0 1 -2.39-6.57v.05a13.4 13.4 0 0 1 2.34 6.58z"></path><path d="m464.58 277a8.48 8.48 0 0 1 -3-5.06l-.05.06a9.24 9.24 0 0 1 3 5.06z"></path><path d="m652.5 382.32c-.44 2.44 1.39 5.09-.72 7.36l.06.05c.24-2.45.47-4.9.71-7.35z"></path><path d="m617.06 168.14c-1.4-1.22-3.32-1.84-4.24-3.62l-.05.06c1.8.75 3.77 1.31 4.24 3.62z"></path><path d="m514.1 76.14c-2.15-.08-3.94 1-5.84 1.77l.06.06c1.36-2.36 3.39-2.6 5.74-1.78z"></path><path d="m538.91 89.47c-2-.53-4.29 1.42-6-.88v.06c1.89 1.06 4.19-.73 6 .88z"></path><path d="m543.81 92.38a12.54 12.54 0 0 1 -4.9-2.91v.06c2.23 0 3.59 1.4 4.9 2.92z"></path><path d="m532.92 88.59c-2.08-.37-3.07-1.79-3.59-3.69l3.58 3.7z"></path><path d="m689.94 343.18a16.11 16.11 0 0 1 -1.72-5.91l-.05.05c1.64 1.66 1.4 3.86 1.72 5.91z"></path><path d="m474.94 370.19c2.07 0 3 1.68 4.18 3l.05-.06c-1.85-.34-3-1.69-4.18-3z"></path><path d="m696 379.69a7.43 7.43 0 0 1 -3.7 3.59l.05.05a7.27 7.27 0 0 1 3.7-3.59z"></path><path d="m472.39 336.63 3.64 1.24c-1.48.27-2.94.47-3.59-1.29z"></path><path d="m202.79 211c2.48 1.56 1.4 3.38.37 5.19l.06.05c-.24-1.75.92-3.61-.4-5.28z"></path><path d="m565.68 110.56c-1.83-.38-2.91-1.81-4.18-3l-.06.07c2 .11 3.09 1.58 4.19 3z"></path><path d="m404 333.24c.89-1.83 2.61-2.45 4.38-3l-.06-.06c-1 1.64-2.71 2.3-4.38 3z"></path><path d="m527.88 83-3.43-2.6a3.61 3.61 0 0 1 3.37 2.66z"></path><path d="m380.84 298.65c2.39 1.35 1.85 2.93.36 4.59h.06c.12-1.58.77-3.21-.37-4.7z"></path><path d="m659.65 223.06a4.32 4.32 0 0 1 -2.94-3.73l-.06.06a11 11 0 0 1 2.94 3.73z"></path><path d="m673.46 292.17c-.29 1.38-1.57 2.52-1 4.11h.05c-2.44-2.07-.05-2.88 1-4z"></path><path d="m363.33 232.42a2.34 2.34 0 0 1 -.64.05c-1-.21-2-.45-3-.68.14-.17.26-.46.41-.48a3.06 3.06 0 0 1 3.17 1.17z"></path><path d="m508.26 77.91c-1.08 1.46-2.51 1.2-4 .6l4-.54z"></path><path d="m449.6 263.65a5.68 5.68 0 0 1 4.1 1.67v-.06a5.42 5.42 0 0 1 -4.1-1.67z"></path><path d="m452.42 359.92c-2.87-1.07-1-2.55-.35-3.92h-.07c.29 1.33-.87 2.78.36 4z"></path><path d="m659.59 223.12c.76 1.39 2.34 1.57 3.49 2.39v-.06c-1.81.15-3.51.15-3.48-2.39z"></path><path d="m377.12 328c.94.58 2.14.76 2.77 1.82v-.07a2.19 2.19 0 0 1 -2.76-1.8z"></path><path d="m646.85 194.31c-1.31-.26-2.72-.31-3.45-1.72v.06a4.09 4.09 0 0 1 3.45 1.71z"></path><path d="m460.82 270.62a3.64 3.64 0 0 1 -2.25-3.08h-.05c1.39.57 1.83 1.81 2.25 3.08z"></path><path d="m681 322a3.49 3.49 0 0 1 2.85 2.44l.06-.06a5.57 5.57 0 0 1 -2.86-2.44z"></path><path d="m575.07 121.81c2.31 0 2.08 1.69 2.23 3.17h.05l-2.23-3.18z"></path><path d="m419.39 336.06a3.18 3.18 0 0 1 2.82 1.74 3.53 3.53 0 0 1 -2.78-1.78z"></path><path d="m358.25 242.39c-.35-1-1.4-2.06.3-2.84l-.07-.05c-.1.94-.19 1.88-.29 2.82z"></path><path d="m701.58 381.87c-1.42.21-2.19-.65-2.84-1.71a4.88 4.88 0 0 1 2.84 1.72z"></path><path d="m610.6 162.05a3.42 3.42 0 0 1 2.17 2.53l.05-.06a2.9 2.9 0 0 1 -2.17-2.53z"></path><path d="m463.93 329.3a3.32 3.32 0 0 1 2.75 1.82l.06-.06a3.58 3.58 0 0 1 -2.83-1.74z"></path><path d="m378 296.9a3.46 3.46 0 0 1 2.8 1.75l.05-.07a3.2 3.2 0 0 1 -2.8-1.74z"></path><path d="m674.31 310.52c-1.14-1.12-1-2.54-.92-3.94a8.88 8.88 0 0 1 .92 3.95z"></path><path d="m430.31 245.29a2.73 2.73 0 0 1 2.79 1.09v-.07a3.1 3.1 0 0 1 -2.8-1.07z"></path><path d="m378.09 296.84a1.69 1.69 0 0 1 -1.45-1.91l-.06.06c1.25.06 1.4.94 1.46 1.91z"></path><path d="m561.5 107.58a2.86 2.86 0 0 1 -2.12-1.83v.06a2 2 0 0 1 2.1 1.84z"></path><path d="m408.41 330.26c.1-.63.57-.83 1.11-.91.07 0 .18.26.27.4l-1.44.45z"></path><path d="m413.05 329.85a1.37 1.37 0 0 1 -1.6-.73c0-.06.23-.44.28-.43a1.71 1.71 0 0 1 1.27 1.23z"></path><path d="m380.38 283.44a2.79 2.79 0 0 1 -1.5-2.59h-.05a3.27 3.27 0 0 1 1.5 2.59z"></path><path d="m457.86 266.92a2.87 2.87 0 0 1 -2.68-1.16v.06c1.06 0 2.1 0 2.67 1.16z"></path><path d="m202.82 211a3.79 3.79 0 0 1 -2.8-1.06l-.02.06a2.25 2.25 0 0 1 2.82 1z"></path><path d="m655.27 244.62a4 4 0 0 1 2.12 1.84l.05-.06a2 2 0 0 1 -2.11-1.84z"></path><path d="m557.23 104.65a2.07 2.07 0 0 1 2.1 1.16v-.06a1.85 1.85 0 0 1 -2.1-1.16z"></path><path d="m472.67 366.36a1.83 1.83 0 0 1 1.49 1.83v-.05a1.8 1.8 0 0 1 -1.48-1.84z"></path><path d="m625.66 393.71a1.84 1.84 0 0 1 1.9-1.45l-.07-.06a2.09 2.09 0 0 1 -1.88 1.46z"></path><path d="m664.18 227.58a3 3 0 0 1 -1-2.13v.06a1.4 1.4 0 0 1 1 2z"></path><path d="m358.55 239.55c0-.5.05-1 .08-1.48.1 0 .26.06.28.12a1 1 0 0 1 -.43 1.31z"></path><path d="m521.6 79.59.88.21-.29.39c-.18-.22-.36-.44-.55-.65z"></path><path d="m404 333.19c.09.89-.38 1.31-1.2 1.42l.05.05a1.44 1.44 0 0 1 1.21-1.42z"></path><path d="m674.45 383.38a1.19 1.19 0 0 1 1.41 1.23l.06-.06a1.58 1.58 0 0 1 -1.42-1.22z"></path><path d="m475 370.14c-.75-.48-.64-1.29-.78-2v.05c.76.47.63 1.29.78 2z"></path><path d="m578.06 120.89a.66.66 0 0 1 .1.25c0 .07-.09.14-.13.21s-.1-.16-.09-.24.06-.11.12-.22z"></path><path d="m669.7 290.06.05.23-.13-.03z"></path><path d="m698 379.54-2 .15v.05c.58-1 1.24-.84 1.94-.14z"></path><path d="m469.83 284.26.25.13-.24.32c0-.08-.14-.16-.15-.24s.09-.14.14-.21z"></path><path d="m674.26 310.57a2 2 0 0 1 .66 2.12l.05-.06a2 2 0 0 1 -.66-2.11z"></path><path d="m619.89 170.57c-1 .22-1.31-.37-1.4-1.21v.06c.73.1 1.29.4 1.4 1.22z"></path><path d="m702.68 362.08c-.12-.58-.15-1.13.52-1.43h-.07a1.13 1.13 0 0 1 -.51 1.43z"></path><path d="m436.59 291.1.17-.37-.2.44z"></path><path d="m567.08 111.11c-.57.08-1.11.08-1.4-.55v.07c.58-.11 1.13-.14 1.4.54z"></path><path d="m405.75 283.37h-.45c.05 0 .11.1.16.09a.71.71 0 0 0 .21-.11z"></path><path d="m699.43 373.51.32-.16-.19-.08-.07.22z"></path><path d="m653.87 381.63a1.2 1.2 0 0 1 -1.37.69v.06c.23-.69.79-.72 1.37-.7z"></path><path d="m461.54 272c-.65-.22-.75-.74-.72-1.34l-.05.05a1.23 1.23 0 0 1 .72 1.35z"></path><path d="m455.18 265.76c-.59.15-1.14.18-1.44-.5v.06a1.23 1.23 0 0 1 1.44.5z"></path><path d="m480.64 373.57c-.59.14-1.17.26-1.47-.47l-.05.06a1.4 1.4 0 0 1 1.47.48z"></path><path d="m376.29 266.38c0 .55.26 1.19-.44 1.55h.07a1.55 1.55 0 0 1 .43-1.53z"></path><path d="m673.52 292.21a1.29 1.29 0 0 1 .51-1.43h-.06c.13.58.2 1.14-.51 1.43z"></path><path d="m433.35 310.26-.2-.09.21-.08z"></path><path d="m528.62 84.29c-.71-.16-.78-.69-.74-1.28l-.06.06c.69.16.74.71.75 1.27z"></path><path d="m344.19 147.6.28-.11-.04.25z"></path><path d="m381.31 330.29c-.58.13-1.09.08-1.38-.55v.07c.57-.1 1.09-.09 1.37.54z"></path><path d="m592.08 144.27c-.71-.16-.83-.67-.73-1.3l-.06.06c.7.17.82.68.73 1.3z"></path><path d="m634.11 409c0-.46-.07-.92-.11-1.38v.05c1 .36.44.83.09 1.29z"></path><path d="m202.69 217.68c-.14-.59-.13-1.12.53-1.4l-.06-.05c.08.57.11 1.12-.54 1.41z"></path><path d="m621.28 171.12c-.6.15-1.12.13-1.39-.55v.07c.57-.09 1.12-.12 1.39.54z"></path><path d="m617.77 168.75a.6.6 0 0 1 -.71-.61v.06a.6.6 0 0 1 .71.6z"></path><path d="m618.49 169.36a.61.61 0 0 1 -.72-.61v.05a.63.63 0 0 1 .72.62z"></path><path d="m65.76 218.84-.07-.11.07.08z"></path><path d="m65.76 218.81.12.11-.12-.08z"></path><path d="m632.09 182.87a.56.56 0 0 1 -.71-.61v.05l.71.62z"></path><path d="m647.55 194.93a.59.59 0 0 1 -.7-.62l-.05.05a.58.58 0 0 1 .72.61z"></path><path d="m413.64 235.94.21.08-.14-.11z"></path><path d="m413.71 235.91-.14.11.08-.08z"></path><path d="m372.7 255.78.07.16-.16-.02z"></path><path d="m253.86 274.57.19.07-.13-.08z"></path><path d="m253.92 274.56-.18.09.13-.08z"></path><path d="m657.39 246.46c.43 0 .69.15.71.61a.59.59 0 0 1 -.7-.61z"></path><path d="m658.1 247.07c.44 0 .69.15.7.61v-.06l-.7-.6z"></path><path d="m659.57 248.24-.73-.62v.06a.59.59 0 0 1 .72.61z"></path><path d="m370.1 271.61.18-.08-.13.02z"></path><path d="m370.15 271.55-.02.16-.03-.1z"></path><path d="m457.81 267a.62.62 0 0 1 .71.61h.05a.61.61 0 0 1 -.71-.62z"></path><path d="m392.82 285.33.06.16-.16-.01z"></path><path d="m467.48 281.45.12.03-.06-.1z"></path><path d="m436.56 291.17-.09.03.13-.1z"></path><path d="m676.93 275.44.1-.13a.25.25 0 0 0 0 .07z"></path><path d="m403.95 310.91.09.17h-.18z"></path><path d="m529.33 84.9c-.47.06-.69-.15-.71-.61a.61.61 0 0 1 .72.61z"></path><path d="m521.64 79.54a.58.58 0 0 1 -.71-.61c.45 0 .67.17.71.61z"></path><path d="m456.83 324.69-.18-.09.13.16z"></path><path d="m457.75 324.64-.06-.05z"></path><path d="m514.8 76.76a.58.58 0 0 1 -.7-.62.56.56 0 0 1 .72.6z"></path><path d="m382 330.9c-.43 0-.69-.15-.71-.61l-.05.06.71.61z"></path><path d="m456.78 324.76 1-.12-.06-.05c-.23.51-.53.45-.85.09z"></path><path d="m382 331a.6.6 0 0 1 .71.61l.05-.06a.6.6 0 0 1 -.71-.61z"></path><path d="m383.43 332.11a.59.59 0 0 1 -.7-.6l-.05.06a.58.58 0 0 1 .7.6z"></path><path d="m384.14 332.72-.71-.61-.05.06.71.61z"></path><path d="m384.86 333.34-.72-.62-.05.06a.63.63 0 0 1 .72.62z"></path><path d="m402.21 335.38a.59.59 0 0 1 .61-.72l-.05-.05-.62.72z"></path><path d="m422.21 337.8a.58.58 0 0 1 .71.6.57.57 0 0 1 -.7-.61z"></path><path d="m471.68 336 .71.61.05-.05a.61.61 0 0 1 -.71-.62z"></path><path d="m101.39 375.5.21.07-.14-.11z"></path><path d="m101.46 375.46-.13.12a.47.47 0 0 0 .06-.09z"></path><path d="m699.49 373.49-.16.09.1-.07z"></path><path d="m698 379.6c.43 0 .7.15.71.61-.41 0-.69-.16-.71-.62z"></path><path d="m580.87 389.83.2.07-.13-.1z"></path><path d="m580.94 389.8-.14.12.08-.09z"></path><path d="m674.5 383.33c-.41 0-.7-.15-.7-.62v.05c.42 0 .7.15.7.62z"></path><path d="m710.22 383.13-.13-.05.08.12z"></path><path d="m710.91 383.87-.69-.74-.05.07.75.65z"></path><path d="m710.92 383.85.12.09-.14-.07z"></path><path d="m593.17 394.27-.06-.15v.11z"></path><path d="m593.11 394.23.17.04h-.11z"></path><path d="m651.22 390.45a.61.61 0 0 1 .62-.72l-.06-.05a.61.61 0 0 1 -.61.72z"></path><path d="m599.17 402.42-.02-.22.01.16z"></path><path d="m599.16 402.36.07.17-.06-.12z"></path><path d="m561.63 409.63-.08-.18.18.02z"></path><path d="m641 422.94.18.07-.12-.1z"></path><path d="m641.05 422.91-.15.1.09-.07z"></path><path d="m657.29 426.92h-.14l.19.03z"></path><path d="m657.34 426.95.06.09-.11-.13z"></path><path d="m583.26 463.71h.17l-.11-.05z"></path><path d="m540.62 467.61-.18-.12.13.17z"></path><path d="m583.32 463.7-.18.08.12-.07z"></path><path d="m540.57 467.66v-.05z"></path><path d="m689.67 461.46-.12-.05.08.1z"></path><path d="m86.66 93.7c0 .08-.06.23-.1.23s-.19-.06-.28-.09l.11-.28z"></path><path d="m36.7 63.66.1.01-.17-.02z"></path><path d="m36.63 63.65v-.14a.88.88 0 0 1 .05.15z"></path></g></svg> 