<svg enable-background="new 0 0 553 49" viewBox="0 0 553 49" xmlns="http://www.w3.org/2000/svg"><g fill="#b88753"><path d="m29.2 40.7-23-14.9 23.9-14.6 23.6 14.9zm-21.1-14.9 21.1 13.7 22.7-13.4-21.7-13.7z"/><path d="m45.5 40.7-22.9-14.9 23.9-14.6 23.6 14.9zm-21.1-14.9 21.1 13.7 22.7-13.4-21.7-13.7z"/><path d="m37.9 22.1-6.2 3.8 5.9 3.9 6.4-3.8z"/><path d="m71.5 12.5-6.2 3.7 6 3.9 6.4-3.8z"/><path d="m71.5 32.3-6.2 3.8 6 3.8 6.4-3.7z"/><path d="m96.2 40.7-23-14.9 23.9-14.6 23.6 14.9zm-21.1-14.9 21.1 13.7 22.7-13.4-21.7-13.7z"/><path d="m112.5 40.7-22.9-14.9 23.9-14.6 23.6 14.9zm-21.1-14.9 21.1 13.7 22.7-13.4-21.7-13.7z"/><path d="m104.9 22.1-6.2 3.8 5.9 3.9 6.4-3.8z"/><path d="m138.5 12.5-6.2 3.7 6 3.9 6.4-3.8z"/><path d="m138.5 32.3-6.2 3.8 6 3.8 6.4-3.7z"/><path d="m163.2 40.7-22.9-14.9 23.9-14.6 23.6 14.9zm-21.1-14.9 21.1 13.7 22.7-13.4-21.7-13.7z"/><path d="m179.5 40.7-22.9-14.9 23.9-14.6 23.6 14.9zm-21.1-14.9 21.1 13.7 22.7-13.4-21.7-13.7z"/><path d="m171.9 22.1-6.2 3.8 5.9 3.9 6.4-3.8z"/><path d="m205.5 12.5-6.2 3.7 6 3.9 6.4-3.8z"/><path d="m205.5 32.3-6.2 3.8 6 3.8 6.4-3.7z"/><path d="m230.2 40.7-22.9-14.9 23.9-14.6 23.6 14.9zm-21.1-14.9 21.1 13.7 22.7-13.4-21.7-13.7z"/><path d="m246.5 40.7-22.9-14.9 23.9-14.6 23.6 14.9zm-21.1-14.9 21.1 13.7 22.7-13.4-21.7-13.7z"/><path d="m238.9 22.1-6.2 3.8 5.9 3.9 6.4-3.8z"/><path d="m272.5 12.5-6.2 3.7 6 3.9 6.4-3.8z"/><path d="m272.5 32.3-6.2 3.8 6 3.8 6.4-3.7z"/><path d="m297.2 40.7-22.9-14.9 23.9-14.6 23.6 14.9zm-21.1-14.9 21.1 13.7 22.7-13.4-21.7-13.7z"/><path d="m313.5 40.7-22.9-14.9 23.9-14.6 23.6 14.9zm-21.1-14.9 21.1 13.7 22.7-13.4-21.7-13.7z"/><path d="m305.9 22.1-6.2 3.8 5.9 3.9 6.4-3.8z"/><path d="m339.5 12.5-6.2 3.7 6 3.9 6.4-3.8z"/><path d="m339.5 32.3-6.2 3.8 6 3.8 6.4-3.7z"/><path d="m364.2 40.7-22.9-14.9 23.9-14.6 23.6 14.9zm-21.1-14.9 21.1 13.7 22.7-13.4-21.7-13.7z"/><path d="m380.5 40.7-22.9-14.9 23.9-14.6 23.6 14.9zm-21.1-14.9 21.1 13.7 22.7-13.4-21.7-13.7z"/><path d="m372.9 22.1-6.2 3.8 5.9 3.9 6.4-3.8z"/><path d="m406.5 12.5-6.2 3.7 6 3.9 6.4-3.8z"/><path d="m406.5 32.3-6.2 3.8 6 3.8 6.4-3.7z"/><path d="m431.2 40.7-22.9-14.9 23.9-14.6 23.6 14.9zm-21.1-14.9 21.1 13.7 22.7-13.4-21.7-13.7z"/><path d="m447.5 40.7-22.9-14.9 23.9-14.6 23.6 14.9zm-21.1-14.9 21.1 13.7 22.7-13.4-21.7-13.7z"/><path d="m439.9 22.1-6.2 3.8 5.9 3.9 6.4-3.8z"/><path d="m473.5 12.5-6.2 3.7 6 3.9 6.4-3.8z"/><path d="m473.5 32.3-6.2 3.8 6 3.8 6.4-3.7z"/><path d="m498.2 40.7-22.9-14.9 23.9-14.6 23.6 14.9zm-21.1-14.9 21.1 13.7 22.7-13.4-21.7-13.7z"/><path d="m514.5 40.7-22.9-14.9 23.9-14.6 23.6 14.9zm-21.1-14.9 21.1 13.7 22.7-13.4-21.7-13.7z"/><path d="m506.9 22.1-6.2 3.8 5.9 3.9 6.4-3.8z"/></g></svg>