<svg viewBox="0 0 234.79 231.85" xmlns="http://www.w3.org/2000/svg"><g fill="#d3c99f"><circle cx="52.39" cy="181.38" r="1"/><circle cx="49.66" cy="66.62" r="1"/><circle cx="183.04" cy="160.67" r="1"/><circle cx="56.29" cy="65.76" r="1"/><circle cx="47.87" cy="152.83" r="1"/><circle cx="161.27" cy="50.01" r="1"/><circle cx="223.7" cy="191.25" r="1"/><circle cx="59.23" cy="38.97" r="1"/><circle cx="9.66" cy="178.61" r="1"/><circle cx="39.05" cy="58.35" r="1"/><circle cx="138.33" cy="229.8" r="1"/><circle cx="70.6" cy="193.59" r="1"/><circle cx="36.97" cy="197.74" r="1"/><circle cx="183.34" cy="156.25" r="1"/><circle cx="186.32" cy="80.24" r="1"/><circle cx="125.09" cy="222.87" r="1"/><circle cx="103.44" cy="222.75" r="1"/><circle cx="31.55" cy="159.14" r="1"/><circle cx="41.34" cy="81.85" r="1"/><circle cx="46.92" cy="184.37" r="1"/><circle cx="195.35" cy="90.5" r="1"/><circle cx="10.27" cy="172.31" r="1"/><circle cx="119.3" cy="11.37" r="1"/><circle cx="213.06" cy="158.78" r="1"/><circle cx="175.26" cy="169.53" r="1"/><circle cx="82.19" cy="206.01" r="1"/><circle cx="139.42" cy="19.15" r="1"/><circle cx="163.79" cy="197.63" r="1"/><circle cx="54.55" cy="191.65" r="1"/><circle cx="198.65" cy="149.74" r="1"/><circle cx="96.58" cy="214.92" r="1"/><circle cx="82.66" cy="214.91" r="1"/><circle cx="65.8" cy="202.31" r="1"/><circle cx="209.7" cy="145.62" r="1"/><circle cx="61.26" cy="208.75" r="1"/><circle cx="94.57" cy="8.35" r="1"/><circle cx="137.4" cy="12.47" r="1"/><circle cx="56.6" cy="155.4" r="1"/><circle cx="105.98" cy="227.34" r="1"/><circle cx="157.27" cy="205.07" r="1"/><circle cx="22.1" cy="139.87" r="1"/><circle cx="40.41" cy="63" r="1"/><circle cx="48.65" cy="191.64" r="1"/><circle cx="68.79" cy="60.8" r="1"/><circle cx="207.74" cy="76.2" r="1"/><circle cx="24.17" cy="107.44" r="1"/><circle cx="185.72" cy="180.13" r="1"/><circle cx="178.91" cy="185.97" r="1"/><circle cx="177.47" cy="181.7" r="1"/><circle cx="223.63" cy="165.02" r="1"/><circle cx="56.98" cy="184.21" r="1"/><circle cx="155.93" cy="210.13" r="1"/><circle cx="70.1" cy="211.11" r="1"/><circle cx="46.01" cy="194.82" r="1"/><circle cx="86.4" cy="48.7" r="1"/><circle cx="175.33" cy="186.88" r="1"/><circle cx="46.1" cy="80.03" r="1"/><circle cx="202.9" cy="188.69" r="1"/><circle cx="195.15" cy="63.3" r="1"/><circle cx="65.5" cy="192.93" r="1"/><circle cx="199.32" cy="188.88" r="1"/><circle cx="12.23" cy="169.95" r="1"/><circle cx="215.33" cy="131.75" r="1"/><circle cx="56.76" cy="150.05" r="1"/><circle cx="129.8" cy="48.08" r="1"/><circle cx="117.25" cy="53.13" r="1"/><circle cx="76.12" cy="36.13" r="1"/><circle cx="70" cy="200.63" r="1"/><circle cx="23.65" cy="99.3" r="1"/><circle cx="211.51" cy="111.42" r="1"/><circle cx="33.17" cy="102.83" r="1"/><circle cx="89.39" cy="24.91" r="1"/><circle cx="105.89" cy="55.69" r="1"/><circle cx="103.7" cy="5.91" r="1"/><circle cx="104.52" cy="12.53" r="1"/><circle cx="107.32" cy="29.46" r="1"/><circle cx="188.27" cy="196.82" r="1"/><circle cx="92.1" cy="31.7" r="1"/><circle cx="199.76" cy="89.5" r="1"/><circle cx="17.15" cy="95.95" r="1"/><circle cx="122.1" cy="214.72" r="1"/><circle cx="26.59" cy="202.04" r="1"/><circle cx="205.66" cy="92.56" r="1"/><circle cx="97.23" cy="42.77" r="1"/><circle cx="171.04" cy="51.71" r="1"/><circle cx="191.52" cy="202.6" r="1"/><circle cx="68.02" cy="206.79" r="1"/><circle cx="130.65" cy="26.63" r="1"/><circle cx="60.98" cy="184.62" r="1"/><circle cx="182.87" cy="53.7" r="1"/><circle cx="202.36" cy="146.87" r="1"/><circle cx="204.6" cy="192.38" r="1"/><circle cx="214.98" cy="180.96" r="1"/><circle cx="110.4" cy="221.79" r="1"/><circle cx="164.2" cy="173.8" r="1"/><circle cx="106.14" cy="220.8" r="1"/><circle cx="175.41" cy="155.78" r="1"/><circle cx="143.79" cy="209.13" r="1"/><circle cx="211.68" cy="121.3" r="1"/><circle cx="102.5" cy="219.79" r="1"/><circle cx="60.92" cy="47.01" r="1"/><circle cx="5.65" cy="178.75" r="1"/><circle cx="149.04" cy="210.69" r="1"/><circle cx="85.92" cy="202.02" r="1"/><circle cx="143.67" cy="42.38" r="1"/><circle cx="192" cy="88.03" r="1"/><circle cx="103.3" cy="56.08" r="1"/><circle cx="55.59" cy="202.75" r="1"/><circle cx="66.15" cy="188.64" r="1"/><circle cx="137.28" cy="31.3" r="1"/><circle cx="14.59" cy="157.45" r="1"/><circle cx="53.16" cy="67.8" r="1"/><circle cx="211.7" cy="192.43" r="1"/><circle cx="207.4" cy="139.66" r="1"/><circle cx="42.88" cy="61.38" r="1"/><circle cx="124.35" cy="218.17" r="1"/><circle cx="209.69" cy="90.12" r="1"/><circle cx="97.58" cy="28.93" r="1"/><circle cx="91.43" cy="222.73" r="1"/><circle cx="221.76" cy="152.32" r="1"/><circle cx="177.23" cy="196.81" r="1"/><circle cx="221.41" cy="161.79" r="1"/><circle cx="107.18" cy="8.63" r="1"/><circle cx="137.86" cy="221.52" r="1"/><circle cx="93.97" cy="219.13" r="1"/><circle cx="52.32" cy="161.92" r="1"/><circle cx="37.68" cy="88.83" r="1"/><circle cx="11.39" cy="161.95" r="1"/><circle cx="30.23" cy="101.43" r="1"/><circle cx="210.33" cy="141.4" r="1"/><circle cx="65.65" cy="178.39" r="1"/><circle cx="201.3" cy="184.26" r="1"/><circle cx="48.04" cy="180.23" r="1"/><circle cx="34.68" cy="99.93" r="1"/><circle cx="19.55" cy="146.23" r="1"/><circle cx="220.85" cy="113.28" r="1"/><circle cx="105.55" cy="19.63" r="1"/><circle cx="18.96" cy="180.41" r="1"/><circle cx="14.9" cy="167.92" r="1"/><circle cx="205.95" cy="198.82" r="1"/><circle cx="5.14" cy="167.2" r="1"/><circle cx="216.07" cy="138.92" r="1"/><circle cx="98.77" cy="34.61" r="1"/><circle cx="49.21" cy="195.9" r="1"/><circle cx="39.79" cy="164.51" r="1"/><circle cx="178" cy="161.95" r="1"/><circle cx="219.96" cy="135.47" r="1"/><circle cx="35.17" cy="109.26" r="1"/><circle cx="148.7" cy="44.81" r="1"/><circle cx="185.85" cy="185.66" r="1"/><circle cx="85.75" cy="217.24" r="1"/><circle cx="192.95" cy="138.25" r="1"/><circle cx="213.56" cy="128.23" r="1"/><circle cx="173.42" cy="166.06" r="1"/><circle cx="137.07" cy="43.27" r="1"/><circle cx="29.21" cy="153.82" r="1"/><circle cx="147.43" cy="33.18" r="1"/><circle cx="187.48" cy="61.43" r="1"/><circle cx="195.02" cy="148.04" r="1"/><circle cx="193.75" cy="96.62" r="1"/><circle cx="77.45" cy="42.2" r="1"/><circle cx="164.84" cy="211.75" r="1"/><circle cx="17.43" cy="184.39" r="1"/><circle cx="129.12" cy="217.59" r="1"/><circle cx="21.71" cy="149.53" r="1"/><circle cx="77.85" cy="50.39" r="1"/><circle cx="53.29" cy="198.87" r="1"/><circle cx="152.3" cy="211.96" r="1"/><circle cx="51.74" cy="151.44" r="1"/><circle cx="70.79" cy="36.95" r="1"/><circle cx="43.28" cy="90.34" r="1"/><circle cx="94.24" cy="225.4" r="1"/><circle cx="196.47" cy="189.43" r="1"/><circle cx="102.35" cy="44.49" r="1"/><circle cx="168.24" cy="171.66" r="1"/><circle cx="38.58" cy="202.33" r="1"/><circle cx="69.38" cy="181.69" r="1"/><circle cx="85.95" cy="29.48" r="1"/><circle cx="14.45" cy="178" r="1"/><circle cx="66.4" cy="210.12" r="1"/><circle cx="144.6" cy="28.77" r="1"/><circle cx="29.75" cy="183.06" r="1"/><circle cx="35.62" cy="75.98" r="1"/><circle cx="209.16" cy="124.15" r="1"/><circle cx="177.93" cy="189.42" r="1"/><circle cx="181.43" cy="62.18" r="1"/><circle cx="36.65" cy="151.81" r="1"/><circle cx="53.83" cy="184.86" r="1"/><circle cx="61.04" cy="149.97" r="1"/><circle cx="185.47" cy="146.94" r="1"/><circle cx="212.75" cy="98.12" r="1"/><circle cx="28.57" cy="157.59" r="1"/><circle cx="199.92" cy="139.48" r="1"/><circle cx="30.04" cy="113.2" r="1"/><circle cx="94.13" cy="53.53" r="1"/><circle cx="189.11" cy="176.86" r="1"/><circle cx="132.25" cy="224.79" r="1"/><circle cx="89.21" cy="53.47" r="1"/><circle cx="165.44" cy="181.61" r="1"/><circle cx="106.42" cy="44.09" r="1"/><circle cx="205.32" cy="186.09" r="1"/><circle cx="93.7" cy="215.89" r="1"/><circle cx="115.53" cy="224.68" r="1"/><circle cx="15.75" cy="144.14" r="1"/><circle cx="25.27" cy="206.23" r="1"/><circle cx="97.13" cy="52.97" r="1"/><circle cx="54.68" cy="144.86" r="1"/><circle cx="126.99" cy="59.84" r="1"/><circle cx="143.15" cy="20.9" r="1"/><circle cx="33.64" cy="83.39" r="1"/><circle cx="115.53" cy="15.63" r="1"/><circle cx="97.07" cy="211.2" r="1"/><circle cx="118.71" cy="61.82" r="1"/><circle cx="81.96" cy="218.78" r="1"/><circle cx="31.17" cy="110.7" r="1"/><circle cx="15.55" cy="172.58" r="1"/><circle cx="118.2" cy="229.92" r="1"/><circle cx="14.86" cy="150" r="1"/><circle cx="183.07" cy="192.6" r="1"/><circle cx="15.23" cy="163.66" r="1"/><circle cx="149.67" cy="29.13" r="1"/><circle cx="51.42" cy="203.54" r="1"/><circle cx="47.22" cy="206.02" r="1"/><circle cx="1" cy="164.86" r="1"/><circle cx="179.62" cy="51.23" r="1"/><circle cx="215.52" cy="115.32" r="1"/><circle cx="128.39" cy="9.19" r="1"/><circle cx="192.78" cy="157.11" r="1"/><circle cx="100.37" cy="18.81" r="1"/><circle cx="100.19" cy="46.64" r="1"/><circle cx="176.11" cy="60.09" r="1"/><circle cx="26.51" cy="78.06" r="1"/><circle cx="188.49" cy="191.38" r="1"/><circle cx="23.76" cy="145.7" r="1"/><circle cx="64.35" cy="211.91" r="1"/><circle cx="183.8" cy="197.25" r="1"/><circle cx="208.1" cy="196.3" r="1"/><circle cx="213.81" cy="118.44" r="1"/><circle cx="184.95" cy="59.57" r="1"/><circle cx="172.66" cy="152.03" r="1"/><circle cx="131.83" cy="52.65" r="1"/><circle cx="110.91" cy="217.53" r="1"/><circle cx="182.26" cy="57.49" r="1"/><circle cx="180.6" cy="194.89" r="1"/><circle cx="60.64" cy="174.04" r="1"/><circle cx="190.51" cy="74.6" r="1"/><circle cx="191.39" cy="67.6" r="1"/><circle cx="132.84" cy="29.77" r="1"/><circle cx="192.95" cy="102.85" r="1"/><circle cx="31.27" cy="190.84" r="1"/><circle cx="143.95" cy="25.03" r="1"/><circle cx="196.07" cy="198.92" r="1"/><circle cx="214.46" cy="197.31" r="1"/><circle cx="207.63" cy="143.26" r="1"/><circle cx="144.66" cy="220.58" r="1"/><circle cx="22.51" cy="166.33" r="1"/><circle cx="102.74" cy="9.77" r="1"/><circle cx="162.95" cy="216.87" r="1"/><circle cx="99.62" cy="213.29" r="1"/><circle cx="180.25" cy="160.09" r="1"/><circle cx="202.15" cy="156.71" r="1"/><circle cx="17.3" cy="111.19" r="1"/><circle cx="138.18" cy="55.3" r="1"/><circle cx="191.67" cy="58.93" r="1"/><circle cx="196.56" cy="156.6" r="1"/><circle cx="71.57" cy="208.49" r="1"/><circle cx="198.25" cy="100.84" r="1"/><circle cx="43.18" cy="55.46" r="1"/><circle cx="118.82" cy="224.66" r="1"/><circle cx="62.62" cy="55.65" r="1"/><circle cx="26.21" cy="191.7" r="1"/><circle cx="89.9" cy="47.35" r="1"/><circle cx="49.76" cy="80.78" r="1"/><circle cx="131.29" cy="61.64" r="1"/><circle cx="201.76" cy="154.07" r="1"/><circle cx="107.63" cy="223.56" r="1"/><circle cx="169.03" cy="156.26" r="1"/><circle cx="191.79" cy="61.96" r="1"/><circle cx="226.33" cy="162.93" r="1"/><circle cx="219.54" cy="176.99" r="1"/><circle cx="30.42" cy="94.72" r="1"/><circle cx="123.44" cy="207.84" r="1"/><circle cx="116.04" cy="1" r="1"/><circle cx="207.01" cy="205.83" r="1"/><circle cx="10.16" cy="148.59" r="1"/><circle cx="213.75" cy="103.35" r="1"/><circle cx="51.38" cy="193.25" r="1"/><circle cx="60.2" cy="214.84" r="1"/><circle cx="184.03" cy="70.63" r="1"/><circle cx="199.06" cy="92.95" r="1"/><circle cx="26.76" cy="185.13" r="1"/><circle cx="202.88" cy="118.27" r="1"/><circle cx="169.56" cy="167.58" r="1"/><circle cx="175.58" cy="159.17" r="1"/><circle cx="211.14" cy="114.71" r="1"/><circle cx="181.15" cy="144.91" r="1"/><circle cx="194.27" cy="73.27" r="1"/><circle cx="89.49" cy="28.11" r="1"/><circle cx="94.74" cy="208.68" r="1"/><circle cx="68.99" cy="164.38" r="1"/><circle cx="36.74" cy="194.15" r="1"/><circle cx="219.39" cy="193.4" r="1"/><circle cx="62.8" cy="43.01" r="1"/><circle cx="40.03" cy="77.51" r="1"/><circle cx="85.75" cy="22.83" r="1"/><circle cx="14.57" cy="181.65" r="1"/><circle cx="58.63" cy="196.26" r="1"/><circle cx="104.62" cy="23.2" r="1"/><circle cx="226.26" cy="154.7" r="1"/><circle cx="68.01" cy="39.75" r="1"/><circle cx="10.63" cy="181.59" r="1"/><circle cx="103.82" cy="26.67" r="1"/><circle cx="184.89" cy="63.77" r="1"/><circle cx="29.67" cy="83.44" r="1"/><circle cx="179.49" cy="59.56" r="1"/><circle cx="38.06" cy="91.79" r="1"/><circle cx="220.03" cy="155.19" r="1"/><circle cx="74.65" cy="44.32" r="1"/><circle cx="34.55" cy="147.85" r="1"/><circle cx="77.67" cy="221.95" r="1"/><circle cx="196.41" cy="83.42" r="1"/><circle cx="172.29" cy="41.58" r="1"/><circle cx="188.81" cy="142.8" r="1"/><circle cx="87.13" cy="213.95" r="1"/><circle cx="182.66" cy="187.46" r="1"/><circle cx="126.21" cy="53.99" r="1"/><circle cx="207.15" cy="88.65" r="1"/><circle cx="120.56" cy="69.87" r="1"/><circle cx="120.46" cy="15.41" r="1"/><circle cx="38.25" cy="113.37" r="1"/><circle cx="133.04" cy="49.94" r="1"/><circle cx="194.18" cy="80.18" r="1"/><circle cx="224.07" cy="179.21" r="1"/><circle cx="134.22" cy="26.44" r="1"/><circle cx="63.57" cy="65.08" r="1"/><circle cx="202.83" cy="90.86" r="1"/><circle cx="186.66" cy="56.19" r="1"/><circle cx="27.7" cy="109" r="1"/><circle cx="85.46" cy="211.61" r="1"/><circle cx="116.12" cy="220.47" r="1"/><circle cx="219.2" cy="131.17" r="1"/><circle cx="171.74" cy="170.49" r="1"/><circle cx="40.1" cy="86.69" r="1"/><circle cx="102.08" cy="217.65" r="1"/><circle cx="197.25" cy="59.8" r="1"/><circle cx="61.55" cy="197.07" r="1"/><circle cx="45.96" cy="58.65" r="1"/><circle cx="81.93" cy="41.14" r="1"/><circle cx="100.06" cy="31.65" r="1"/><circle cx="205.19" cy="86.43" r="1"/><circle cx="18.07" cy="164.76" r="1"/><circle cx="45.76" cy="74.4" r="1"/><circle cx="45.57" cy="157.73" r="1"/><circle cx="213.24" cy="92.29" r="1"/><circle cx="98.71" cy="38.58" r="1"/><circle cx="206.63" cy="117.08" r="1"/><circle cx="192.13" cy="199.43" r="1"/><circle cx="196.04" cy="185.02" r="1"/><circle cx="24.55" cy="194.63" r="1"/><circle cx="195.48" cy="66.45" r="1"/><circle cx="171.3" cy="186.01" r="1"/><circle cx="217.66" cy="190.12" r="1"/><circle cx="92.44" cy="45.02" r="1"/><circle cx="213.4" cy="155.64" r="1"/><circle cx="75.52" cy="47.43" r="1"/><circle cx="43.71" cy="139.31" r="1"/><circle cx="196.5" cy="111.27" r="1"/><circle cx="41.29" cy="148.58" r="1"/><circle cx="61.54" cy="204.12" r="1"/><circle cx="66.37" cy="43.09" r="1"/><circle cx="221.44" cy="121.2" r="1"/><circle cx="214.85" cy="107.89" r="1"/><circle cx="130.45" cy="55.13" r="1"/><circle cx="207.91" cy="201.34" r="1"/><circle cx="215.66" cy="142.66" r="1"/><circle cx="42.86" cy="201.68" r="1"/><circle cx="212.62" cy="152.05" r="1"/><circle cx="102.38" cy="36.64" r="1"/><circle cx="203.75" cy="141.45" r="1"/><circle cx="188.05" cy="69.35" r="1"/><circle cx="18.96" cy="100.57" r="1"/><circle cx="75.25" cy="54.8" r="1"/><circle cx="152.98" cy="201.85" r="1"/><circle cx="174.3" cy="173.65" r="1"/><circle cx="14.92" cy="195.19" r="1"/><circle cx="128.66" cy="40.36" r="1"/><circle cx="220.66" cy="199.78" r="1"/><circle cx="48.96" cy="74.86" r="1"/><circle cx="203.96" cy="131.41" r="1"/><circle cx="124.36" cy="43.8" r="1"/><circle cx="145.75" cy="212.34" r="1"/><circle cx="110.71" cy="21.13" r="1"/><circle cx="37.54" cy="83.44" r="1"/><circle cx="63.74" cy="172" r="1"/><circle cx="18.96" cy="194.21" r="1"/><circle cx="125.46" cy="68.84" r="1"/><circle cx="34.81" cy="79.51" r="1"/><circle cx="33.36" cy="152.4" r="1"/><circle cx="152.36" cy="38.85" r="1"/><circle cx="111.41" cy="4.96" r="1"/><circle cx="101.35" cy="225.19" r="1"/><circle cx="56.65" cy="180.13" r="1"/><circle cx="25.16" cy="159.63" r="1"/><circle cx="84.07" cy="51.3" r="1"/><circle cx="53.81" cy="188.64" r="1"/><circle cx="45.89" cy="165.37" r="1"/><circle cx="211.41" cy="195.45" r="1"/><circle cx="175.26" cy="57.21" r="1"/><circle cx="112.31" cy="51.86" r="1"/><circle cx="38.11" cy="148.36" r="1"/><circle cx="125.35" cy="18.35" r="1"/><circle cx="123.16" cy="16.29" r="1"/><circle cx="24.2" cy="111.11" r="1"/><circle cx="70.09" cy="214.21" r="1"/><circle cx="189.01" cy="184.69" r="1"/><circle cx="8.86" cy="175.21" r="1"/><circle cx="53.8" cy="51.94" r="1"/><circle cx="141.06" cy="221.09" r="1"/><circle cx="216.56" cy="154.93" r="1"/><circle cx="112.14" cy="44.56" r="1"/><circle cx="51.99" cy="64.24" r="1"/><circle cx="98.47" cy="220.32" r="1"/><circle cx="139.4" cy="15.94" r="1"/><circle cx="182.85" cy="200.49" r="1"/><circle cx="131.12" cy="33.48" r="1"/><circle cx="204.67" cy="148.54" r="1"/><circle cx="196.53" cy="87.06" r="1"/><circle cx="185.58" cy="189.54" r="1"/><circle cx="153.59" cy="207.13" r="1"/><circle cx="215.45" cy="148.13" r="1"/><circle cx="97.97" cy="217.13" r="1"/><circle cx="118.82" cy="8.06" r="1"/><circle cx="63.22" cy="199.91" r="1"/><circle cx="99.15" cy="13.46" r="1"/><circle cx="90.26" cy="215.26" r="1"/><circle cx="180.48" cy="174.77" r="1"/><circle cx="114.8" cy="23.62" r="1"/><circle cx="142.01" cy="11.32" r="1"/><circle cx="92.36" cy="212.48" r="1"/><circle cx="127.55" cy="30.63" r="1"/><circle cx="181.1" cy="153.76" r="1"/><circle cx="80.81" cy="37.06" r="1"/><circle cx="52.82" cy="75.77" r="1"/><circle cx="117.92" cy="209.93" r="1"/><circle cx="221.3" cy="181.24" r="1"/><circle cx="73.47" cy="199.8" r="1"/><circle cx="225.82" cy="173.58" r="1"/><circle cx="189.97" cy="64.77" r="1"/><circle cx="14.08" cy="154.52" r="1"/><circle cx="136.16" cy="20.68" r="1"/><circle cx="231.92" cy="183.97" r="1"/><circle cx="96.06" cy="36.12" r="1"/><circle cx="96.42" cy="45.45" r="1"/><circle cx="211.87" cy="203.99" r="1"/><circle cx="27.61" cy="99.69" r="1"/><circle cx="102.43" cy="230.85" r="1"/><circle cx="26.25" cy="91.8" r="1"/><circle cx="209.25" cy="189.99" r="1"/><circle cx="18.94" cy="168.87" r="1"/><circle cx="204.92" cy="113.78" r="1"/><circle cx="188.14" cy="168.06" r="1"/><circle cx="76.56" cy="204.94" r="1"/><circle cx="208.24" cy="127.45" r="1"/><circle cx="186.26" cy="86.46" r="1"/><circle cx="50.53" cy="70.77" r="1"/><circle cx="58.71" cy="204.43" r="1"/><circle cx="222.88" cy="172.12" r="1"/><circle cx="28.95" cy="193.16" r="1"/><circle cx="198.54" cy="159.27" r="1"/><circle cx="193.76" cy="145.04" r="1"/><circle cx="196.73" cy="77.63" r="1"/><circle cx="134.55" cy="33.32" r="1"/><circle cx="81.8" cy="222.75" r="1"/><circle cx="82.3" cy="209.74" r="1"/><circle cx="211.13" cy="133.95" r="1"/><circle cx="201.52" cy="75.07" r="1"/><circle cx="40.17" cy="157.52" r="1"/><circle cx="188.6" cy="72.45" r="1"/><circle cx="216.86" cy="126.81" r="1"/><circle cx="18.4" cy="156.82" r="1"/><circle cx="64.09" cy="37.42" r="1"/><circle cx="120.49" cy="58.39" r="1"/><circle cx="211.26" cy="182.13" r="1"/><circle cx="109.05" cy="212.34" r="1"/><circle cx="10.24" cy="189.11" r="1"/><circle cx="136.26" cy="59.42" r="1"/><circle cx="202.09" cy="95.61" r="1"/><circle cx="70.47" cy="172.1" r="1"/><circle cx="95.07" cy="30.86" r="1"/><circle cx="111.21" cy="9.54" r="1"/><circle cx="134.21" cy="37.2" r="1"/><circle cx="33.1" cy="155.53" r="1"/><circle cx="213.1" cy="124.28" r="1"/><circle cx="74.19" cy="206.98" r="1"/><circle cx="209.81" cy="118" r="1"/><circle cx="26.34" cy="95.27" r="1"/><circle cx="56.19" cy="168.66" r="1"/><circle cx="148.5" cy="23.62" r="1"/><circle cx="26.93" cy="103.89" r="1"/><circle cx="191.28" cy="148.75" r="1"/><circle cx="99.67" cy="7.82" r="1"/><circle cx="80.37" cy="33.22" r="1"/><circle cx="196.16" cy="193.33" r="1"/><circle cx="57.05" cy="59.5" r="1"/><circle cx="197.17" cy="153.07" r="1"/><circle cx="198.78" cy="97.72" r="1"/><circle cx="127.71" cy="57.02" r="1"/><circle cx="117.26" cy="56.6" r="1"/><circle cx="148.56" cy="220.77" r="1"/><circle cx="162.16" cy="207.64" r="1"/><circle cx="108.43" cy="11.68" r="1"/><circle cx="31.2" cy="66.35" r="1"/><circle cx="118.73" cy="213.36" r="1"/><circle cx="136.4" cy="47.08" r="1"/><circle cx="22.21" cy="81.94" r="1"/><circle cx="66.27" cy="57.97" r="1"/><circle cx="119.24" cy="47.72" r="1"/><circle cx="129.44" cy="36.74" r="1"/><circle cx="204.27" cy="135.49" r="1"/><circle cx="28.41" cy="88.46" r="1"/><circle cx="196.92" cy="202.07" r="1"/><circle cx="95.97" cy="26.07" r="1"/><circle cx="36.75" cy="207.26" r="1"/><circle cx="62.65" cy="58.96" r="1"/><circle cx="59.53" cy="68.36" r="1"/><circle cx="175.41" cy="193.19" r="1"/><circle cx="140.04" cy="215.74" r="1"/><circle cx="49.17" cy="168.07" r="1"/><circle cx="145.68" cy="217.47" r="1"/><circle cx="197.88" cy="74.1" r="1"/><circle cx="23.62" cy="154.24" r="1"/><circle cx="73.7" cy="51.38" r="1"/><circle cx="165.88" cy="45.58" r="1"/><circle cx="39.44" cy="101.12" r="1"/><circle cx="169.35" cy="46.88" r="1"/><circle cx="137.64" cy="28.11" r="1"/><circle cx="193.05" cy="195.8" r="1"/><circle cx="216.91" cy="123.14" r="1"/><circle cx="115.97" cy="12.95" r="1"/><circle cx="135.49" cy="215.08" r="1"/><circle cx="44.99" cy="151.07" r="1"/><circle cx="30.2" cy="91.21" r="1"/><circle cx="12.6" cy="175.47" r="1"/><circle cx="208.69" cy="105.55" r="1"/><circle cx="146.82" cy="40.25" r="1"/><circle cx="88.28" cy="31.9" r="1"/><circle cx="33.67" cy="115.14" r="1"/><circle cx="207.97" cy="113.25" r="1"/><circle cx="88.15" cy="208.43" r="1"/><circle cx="38.04" cy="105.26" r="1"/><circle cx="64.6" cy="183.74" r="1"/><circle cx="108.4" cy="54.1" r="1"/><circle cx="26.73" cy="164.12" r="1"/><circle cx="195.87" cy="205.74" r="1"/><circle cx="98.76" cy="49.5" r="1"/><circle cx="102.27" cy="215.04" r="1"/><circle cx="40.63" cy="144.99" r="1"/><circle cx="51.34" cy="148.27" r="1"/><circle cx="198.34" cy="126.29" r="1"/><circle cx="126.64" cy="21.17" r="1"/><circle cx="59.75" cy="61.42" r="1"/><circle cx="115.72" cy="9.87" r="1"/><circle cx="62.8" cy="154.99" r="1"/><circle cx="192.96" cy="162.83" r="1"/><circle cx="141.78" cy="211.1" r="1"/><circle cx="189.85" cy="206.35" r="1"/><circle cx="215.74" cy="172.39" r="1"/><circle cx="33.64" cy="89.3" r="1"/><circle cx="213.34" cy="86.19" r="1"/><circle cx="12.57" cy="185.26" r="1"/><circle cx="24.56" cy="102.66" r="1"/><circle cx="189.85" cy="146.19" r="1"/><circle cx="22.1" cy="191.04" r="1"/><circle cx="207.52" cy="121.12" r="1"/><circle cx="21.11" cy="103.71" r="1"/><circle cx="68.42" cy="54.18" r="1"/><circle cx="89.26" cy="37.6" r="1"/><circle cx="101.53" cy="63.99" r="1"/><circle cx="44.06" cy="96.05" r="1"/><circle cx="226.61" cy="169.94" r="1"/><circle cx="54.27" cy="175.88" r="1"/><circle cx="207.65" cy="193.12" r="1"/><circle cx="233.79" cy="171.59" r="1"/><circle cx="7.25" cy="182.22" r="1"/><circle cx="189.23" cy="163.39" r="1"/><circle cx="208.86" cy="168.29" r="1"/><circle cx="216.43" cy="95.96" r="1"/><circle cx="66.13" cy="168.34" r="1"/><circle cx="127.73" cy="220.84" r="1"/><circle cx="125.91" cy="226.82" r="1"/><circle cx="131.94" cy="215.59" r="1"/><circle cx="30.68" cy="71.32" r="1"/><circle cx="62.49" cy="168.1" r="1"/><circle cx="64.65" cy="206.12" r="1"/><circle cx="87.08" cy="221.28" r="1"/><circle cx="208.22" cy="157.97" r="1"/><circle cx="25.72" cy="156.61" r="1"/><circle cx="72.06" cy="217.57" r="1"/><circle cx="212.9" cy="165.52" r="1"/><circle cx="102.44" cy="17.11" r="1"/><circle cx="35.42" cy="69.32" r="1"/><circle cx="38" cy="67.61" r="1"/><circle cx="168.1" cy="177.57" r="1"/><circle cx="32.5" cy="106.58" r="1"/><circle cx="150.45" cy="206.14" r="1"/><circle cx="201.76" cy="151.27" r="1"/><circle cx="166.07" cy="61.59" r="1"/><circle cx="35.88" cy="62.92" r="1"/><circle cx="52.24" cy="178.74" r="1"/><circle cx="94.5" cy="12.61" r="1"/><circle cx="225.21" cy="158.97" r="1"/><circle cx="31.43" cy="187.78" r="1"/><circle cx="57.35" cy="173.57" r="1"/><circle cx="33.77" cy="93.24" r="1"/><circle cx="120.94" cy="52.44" r="1"/><circle cx="138.1" cy="35.39" r="1"/><circle cx="137.04" cy="209.56" r="1"/><circle cx="18.6" cy="160.75" r="1"/><circle cx="105.05" cy="15.45" r="1"/><circle cx="50.08" cy="57.26" r="1"/><circle cx="172.52" cy="160.5" r="1"/><circle cx="176.45" cy="201.74" r="1"/><circle cx="50.08" cy="171.53" r="1"/><circle cx="23.35" cy="185.34" r="1"/><circle cx="202.36" cy="99.49" r="1"/><circle cx="130.26" cy="16.59" r="1"/><circle cx="181.83" cy="67.41" r="1"/><circle cx="46.32" cy="64.46" r="1"/><circle cx="138.55" cy="212.68" r="1"/><circle cx="53.29" cy="58.44" r="1"/><circle cx="25.24" cy="199.12" r="1"/><circle cx="110.34" cy="48.24" r="1"/><circle cx="137.7" cy="25.18" r="1"/><circle cx="59.85" cy="170.77" r="1"/><circle cx="205.16" cy="109.8" r="1"/><circle cx="181.55" cy="78.73" r="1"/><circle cx="57.3" cy="187.11" r="1"/><circle cx="46.95" cy="160.95" r="1"/><circle cx="20.59" cy="201.66" r="1"/><circle cx="14.93" cy="160.25" r="1"/><circle cx="90.73" cy="209.7" r="1"/><circle cx="46.35" cy="54.28" r="1"/><circle cx="21.17" cy="112.82" r="1"/><circle cx="180.7" cy="179.56" r="1"/><circle cx="130.19" cy="20.11" r="1"/><circle cx="136.92" cy="50.71" r="1"/><circle cx="14.17" cy="201.07" r="1"/><circle cx="215.66" cy="176.39" r="1"/><circle cx="217.4" cy="161.95" r="1"/><circle cx="47.94" cy="48.16" r="1"/><circle cx="29.72" cy="199.31" r="1"/><circle cx="177.35" cy="53.39" r="1"/><circle cx="29.08" cy="97.32" r="1"/><circle cx="29.64" cy="74.87" r="1"/><circle cx="19.33" cy="107.47" r="1"/><circle cx="122.67" cy="220.69" r="1"/><circle cx="65.31" cy="158.9" r="1"/><circle cx="38.66" cy="154.01" r="1"/><circle cx="133.7" cy="211.22" r="1"/><circle cx="180.47" cy="44.77" r="1"/><circle cx="191.72" cy="181.67" r="1"/><circle cx="150.37" cy="216.62" r="1"/><circle cx="182.95" cy="167.46" r="1"/><circle cx="178.15" cy="67.92" r="1"/><circle cx="122.25" cy="225.36" r="1"/><circle cx="213.79" cy="161.9" r="1"/><circle cx="107.15" cy="217.9" r="1"/><circle cx="185.24" cy="170.43" r="1"/><circle cx="176.95" cy="177.94" r="1"/><circle cx="57.58" cy="48.79" r="1"/><circle cx="103.8" cy="50.98" r="1"/><circle cx="152.67" cy="219.54" r="1"/><circle cx="200.28" cy="195.98" r="1"/><circle cx="34.84" cy="202.16" r="1"/><circle cx="42.4" cy="194.11" r="1"/><circle cx="172.16" cy="62.55" r="1"/><circle cx="85.12" cy="225.33" r="1"/><circle cx="154.44" cy="213.91" r="1"/><circle cx="122.5" cy="11.69" r="1"/><circle cx="72.07" cy="56.53" r="1"/><circle cx="126.64" cy="216.43" r="1"/><circle cx="34.55" cy="185.09" r="1"/><circle cx="130.24" cy="23.25" r="1"/><circle cx="201.28" cy="111.15" r="1"/><circle cx="16.1" cy="187.57" r="1"/><circle cx="128.01" cy="209.24" r="1"/><circle cx="26.99" cy="143.36" r="1"/><circle cx="205.33" cy="125.2" r="1"/><circle cx="119.3" cy="216.68" r="1"/><circle cx="211.52" cy="148.64" r="1"/><circle cx="61.79" cy="188.19" r="1"/><circle cx="31.48" cy="150.14" r="1"/><circle cx="22.52" cy="121.28" r="1"/><circle cx="216.49" cy="166.15" r="1"/><circle cx="170.47" cy="181.61" r="1"/><circle cx="107.52" cy="3.2" r="1"/><circle cx="95.79" cy="39.49" r="1"/><circle cx="49.91" cy="61.33" r="1"/><circle cx="196.79" cy="95.06" r="1"/><circle cx="209.6" cy="153.86" r="1"/><circle cx="49.59" cy="142.15" r="1"/><circle cx="206.68" cy="130.51" r="1"/><circle cx="112.01" cy="212.99" r="1"/><circle cx="140.17" cy="32.88" r="1"/><circle cx="66.07" cy="50.75" r="1"/><circle cx="190.37" cy="55" r="1"/><circle cx="172.11" cy="190.53" r="1"/><circle cx="141.86" cy="225.06" r="1"/><circle cx="90.14" cy="34.53" r="1"/><circle cx="193.12" cy="84.07" r="1"/><circle cx="172.88" cy="49.39" r="1"/><circle cx="29.32" cy="105.69" r="1"/><circle cx="203.57" cy="121.87" r="1"/><circle cx="18.6" cy="173.42" r="1"/><circle cx="192.14" cy="76.65" r="1"/><circle cx="105.19" cy="39.58" r="1"/><circle cx="45.79" cy="144.18" r="1"/><circle cx="179.27" cy="64.16" r="1"/><circle cx="17.76" cy="191.55" r="1"/><circle cx="13.89" cy="113.45" r="1"/><circle cx="87.41" cy="44.71" r="1"/><circle cx="1" cy="175.4" r="1"/><circle cx="31.04" cy="86.18" r="1"/><circle cx="37.4" cy="189.18" r="1"/><circle cx="165.31" cy="164.91" r="1"/><circle cx="43.16" cy="84.03" r="1"/><circle cx="118.95" cy="18.15" r="1"/><circle cx="109.95" cy="15.61" r="1"/><circle cx="221.35" cy="127.44" r="1"/><circle cx="42.22" cy="160.6" r="1"/><circle cx="131.24" cy="5.95" r="1"/><circle cx="32.63" cy="195.26" r="1"/><circle cx="182.57" cy="177.12" r="1"/><circle cx="28.67" cy="148.91" r="1"/><circle cx="184.58" cy="141.06" r="1"/><circle cx="199.91" cy="200.82" r="1"/><circle cx="203.61" cy="138.4" r="1"/><circle cx="119.26" cy="65.79" r="1"/><circle cx="192.74" cy="70.59" r="1"/><circle cx="122.54" cy="55.75" r="1"/><circle cx="141.73" cy="54.24" r="1"/><circle cx="47.42" cy="200.95" r="1"/><circle cx="200.26" cy="107.84" r="1"/><circle cx="55.68" cy="162.77" r="1"/><circle cx="200.53" cy="192.75" r="1"/><circle cx="10.25" cy="153.84" r="1"/><circle cx="134.86" cy="65" r="1"/><circle cx="213.95" cy="188.78" r="1"/><circle cx="45.45" cy="175.22" r="1"/><circle cx="208.85" cy="109.18" r="1"/><circle cx="32.03" cy="144.67" r="1"/><circle cx="213.28" cy="185.39" r="1"/><circle cx="107.94" cy="17.66" r="1"/><circle cx="199.52" cy="120.14" r="1"/><circle cx="218.08" cy="196.74" r="1"/><circle cx="22.47" cy="195.78" r="1"/><circle cx="200.89" cy="131.34" r="1"/><circle cx="61.93" cy="178.49" r="1"/><circle cx="86.29" cy="35.56" r="1"/><circle cx="143.59" cy="38.47" r="1"/><circle cx="20.12" cy="187.81" r="1"/><circle cx="59.42" cy="167.29" r="1"/><circle cx="208.63" cy="186.21" r="1"/><circle cx="46.89" cy="70.64" r="1"/><circle cx="112.01" cy="13.33" r="1"/><circle cx="105.05" cy="67.15" r="1"/><circle cx="32.65" cy="163.16" r="1"/><circle cx="221.53" cy="140.63" r="1"/><circle cx="39.66" cy="192.08" r="1"/><circle cx="229.39" cy="170.54" r="1"/><circle cx="41.86" cy="205.91" r="1"/><circle cx="220.67" cy="165.2" r="1"/><circle cx="173.95" cy="182.58" r="1"/><circle cx="17.79" cy="151.84" r="1"/><circle cx="126.25" cy="12.14" r="1"/><circle cx="215.08" cy="192.36" r="1"/><circle cx="9.37" cy="196.28" r="1"/><circle cx="205.24" cy="95.84" r="1"/><circle cx="112.15" cy="18.21" r="1"/><circle cx="100.5" cy="208.24" r="1"/><circle cx="5.06" cy="171.82" r="1"/><circle cx="176.15" cy="49.88" r="1"/><circle cx="131.25" cy="12.21" r="1"/><circle cx="31.6" cy="206.46" r="1"/><circle cx="104.26" cy="211.9" r="1"/><circle cx="130.92" cy="221.39" r="1"/><circle cx="180.61" cy="190.93" r="1"/><circle cx="76.02" cy="211.52" r="1"/><circle cx="45.59" cy="67.62" r="1"/><circle cx="198.28" cy="104.59" r="1"/><circle cx="5.9" cy="160.29" r="1"/><circle cx="58.53" cy="176.94" r="1"/><circle cx="29.26" cy="139.59" r="1"/><circle cx="53.16" cy="47.9" r="1"/><circle cx="103.05" cy="59.8" r="1"/><circle cx="139.37" cy="23.06" r="1"/><circle cx="134.38" cy="22.56" r="1"/><circle cx="185.67" cy="174.3" r="1"/><circle cx="64.96" cy="53.98" r="1"/><circle cx="197.64" cy="70.39" r="1"/><circle cx="159.21" cy="212.1" r="1"/><circle cx="92.84" cy="26.95" r="1"/><circle cx="115.58" cy="60.5" r="1"/><circle cx="213.17" cy="144.2" r="1"/><circle cx="174.94" cy="163.48" r="1"/><circle cx="217.63" cy="118.56" r="1"/><circle cx="79.59" cy="216.14" r="1"/><circle cx="61.77" cy="193.28" r="1"/><circle cx="211.62" cy="129.93" r="1"/><circle cx="92.42" cy="17.15" r="1"/><circle cx="222.96" cy="176.27" r="1"/><circle cx="80.3" cy="54.27" r="1"/><circle cx="218.39" cy="101.78" r="1"/><circle cx="190.33" cy="152.21" r="1"/><circle cx="195.04" cy="142.1" r="1"/><circle cx="53.93" cy="206.24" r="1"/><circle cx="50.59" cy="199.34" r="1"/><circle cx="142.64" cy="215.43" r="1"/><circle cx="60.57" cy="51.77" r="1"/><circle cx="117.77" cy="29.79" r="1"/><circle cx="32.4" cy="97.6" r="1"/><circle cx="115.85" cy="19.42" r="1"/><circle cx="26.74" cy="152.03" r="1"/><circle cx="84.96" cy="207.62" r="1"/><circle cx="128.48" cy="51.13" r="1"/><circle cx="183.3" cy="74.14" r="1"/><circle cx="55.55" cy="209.91" r="1"/><circle cx="30.09" cy="80.58" r="1"/><circle cx="92.57" cy="50.24" r="1"/><circle cx="36.71" cy="96.64" r="1"/><circle cx="24.03" cy="116.3" r="1"/><circle cx="30.25" cy="202.67" r="1"/><circle cx="224.31" cy="196.28" r="1"/><circle cx="217.9" cy="179.78" r="1"/><circle cx="42" cy="152.46" r="1"/><circle cx="113.67" cy="227.43" r="1"/><circle cx="220.8" cy="188.87" r="1"/><circle cx="132.32" cy="57.93" r="1"/><circle cx="40.02" cy="197.85" r="1"/><circle cx="15.72" cy="118.45" r="1"/><circle cx="227.98" cy="181.36" r="1"/><circle cx="29.16" cy="146.21" r="1"/><circle cx="48.52" cy="156.78" r="1"/><circle cx="78.6" cy="39.52" r="1"/><circle cx="44.44" cy="191.78" r="1"/><circle cx="169.27" cy="162.69" r="1"/><circle cx="202.01" cy="126.38" r="1"/><circle cx="53.19" cy="54.99" r="1"/><circle cx="96.97" cy="227.83" r="1"/><circle cx="216.44" cy="112.01" r="1"/><circle cx="181.75" cy="149.44" r="1"/><circle cx="52.74" cy="166.32" r="1"/><circle cx="209.07" cy="132.5" r="1"/><circle cx="46.07" cy="198.02" r="1"/><circle cx="136.4" cy="225.51" r="1"/><circle cx="143.34" cy="51.16" r="1"/><circle cx="26.42" cy="113.26" r="1"/><circle cx="189.36" cy="188.57" r="1"/><circle cx="64.22" cy="47.22" r="1"/><circle cx="96.37" cy="17.17" r="1"/><circle cx="156.74" cy="216.01" r="1"/><circle cx="95.59" cy="48.62" r="1"/><circle cx="114.65" cy="6.61" r="1"/><circle cx="44.55" cy="187.17" r="1"/><circle cx="42.04" cy="73.99" r="1"/><circle cx="142.04" cy="59.58" r="1"/><circle cx="7.22" cy="186.31" r="1"/><circle cx="119.36" cy="4.26" r="1"/><circle cx="101.07" cy="21.95" r="1"/><circle cx="147.23" cy="201.37" r="1"/><circle cx="129.14" cy="213.1" r="1"/><circle cx="14.22" cy="105.94" r="1"/><circle cx="35.87" cy="144.48" r="1"/><circle cx="53.89" cy="171.11" r="1"/><circle cx="3.31" cy="183.05" r="1"/><circle cx="187.95" cy="200.4" r="1"/><circle cx="113" cy="220.98" r="1"/><circle cx="30.09" cy="116.34" r="1"/><circle cx="201.57" cy="86.14" r="1"/><circle cx="54.69" cy="42.78" r="1"/><circle cx="26.87" cy="117.3" r="1"/><circle cx="123.8" cy="61.19" r="1"/><circle cx="143.29" cy="31.85" r="1"/><circle cx="75.37" cy="31.31" r="1"/><circle cx="34.37" cy="191.54" r="1"/><circle cx="189.75" cy="158.8" r="1"/><circle cx="113.62" cy="58.32" r="1"/><circle cx="25.1" cy="179.44" r="1"/><circle cx="186.21" cy="154.84" r="1"/><circle cx="166.68" cy="51.23" r="1"/><circle cx="122.07" cy="63.91" r="1"/><circle cx="92.52" cy="58.1" r="1"/><circle cx="104.8" cy="33.41" r="1"/><circle cx="70.6" cy="204.4" r="1"/><circle cx="90.93" cy="204" r="1"/><circle cx="185.75" cy="66.62" r="1"/><circle cx="214.9" cy="135.39" r="1"/><circle cx="69.26" cy="49.95" r="1"/><circle cx="125.23" cy="47.48" r="1"/><circle cx="32.46" cy="77.77" r="1"/><circle cx="67.73" cy="198.85" r="1"/><circle cx="19.51" cy="115.47" r="1"/><circle cx="44.13" cy="155.27" r="1"/><circle cx="92.24" cy="42.04" r="1"/><circle cx="199.58" cy="83.51" r="1"/><circle cx="199" cy="135.07" r="1"/><circle cx="43.14" cy="198" r="1"/><circle cx="50.21" cy="175.38" r="1"/><circle cx="46.5" cy="61.9" r="1"/><circle cx="115.19" cy="65.96" r="1"/><circle cx="205.5" cy="151.95" r="1"/><circle cx="123.88" cy="50.71" r="1"/><circle cx="177.77" cy="170.91" r="1"/><circle cx="96.04" cy="222.38" r="1"/><circle cx="88.4" cy="40.61" r="1"/><circle cx="34.18" cy="120.24" r="1"/><circle cx="176.41" cy="148.83" r="1"/><circle cx="105.36" cy="47.65" r="1"/><circle cx="12.34" cy="192.45" r="1"/><circle cx="178.66" cy="55.66" r="1"/><circle cx="224.78" cy="182.5" r="1"/><circle cx="74.09" cy="220.92" r="1"/><circle cx="126.25" cy="25.23" r="1"/><circle cx="114.87" cy="70.8" r="1"/><circle cx="49.93" cy="163.42" r="1"/><circle cx="72.04" cy="48.16" r="1"/><circle cx="35.49" cy="72.81" r="1"/><circle cx="211.75" cy="106.39" r="1"/><circle cx="29.7" cy="120.46" r="1"/><circle cx="89.2" cy="218.46" r="1"/><circle cx="41.56" cy="188.61" r="1"/><circle cx="211.33" cy="199.22" r="1"/><circle cx="225.53" cy="186.84" r="1"/><circle cx="204.32" cy="159.83" r="1"/><circle cx="183.82" cy="183.1" r="1"/><circle cx="203.19" cy="70.95" r="1"/><circle cx="43.12" cy="77.88" r="1"/><circle cx="175.09" cy="72.32" r="1"/><circle cx="191.01" cy="92.81" r="1"/><circle cx="148.07" cy="214.95" r="1"/><circle cx="23.14" cy="95.68" r="1"/><circle cx="21.26" cy="158.1" r="1"/><circle cx="58.76" cy="190.29" r="1"/><circle cx="171.22" cy="174.61" r="1"/><circle cx="59.75" cy="54.99" r="1"/><circle cx="97.87" cy="204.48" r="1"/><circle cx="22.47" cy="170.39" r="1"/><circle cx="70.43" cy="44.17" r="1"/><circle cx="204.41" cy="106.49" r="1"/><circle cx="79.72" cy="204.04" r="1"/><circle cx="19.38" cy="198.02" r="1"/><circle cx="69.31" cy="33.21" r="1"/><circle cx="119.88" cy="21.18" r="1"/><circle cx="204.46" cy="82.41" r="1"/><circle cx="206.92" cy="163.81" r="1"/><circle cx="79.68" cy="200.03" r="1"/><circle cx="200.39" cy="207.49" r="1"/><circle cx="197.41" cy="195.95" r="1"/><circle cx="21.33" cy="176.75" r="1"/><circle cx="101.1" cy="41.32" r="1"/><circle cx="7.63" cy="163.33" r="1"/><circle cx="204.71" cy="101.18" r="1"/><circle cx="170.08" cy="55.01" r="1"/><circle cx="35.39" cy="86.49" r="1"/><circle cx="208.67" cy="136.9" r="1"/><circle cx="180.71" cy="183.71" r="1"/><circle cx="224.94" cy="167.78" r="1"/><circle cx="85.37" cy="42.43" r="1"/><circle cx="156.55" cy="222.71" r="1"/><circle cx="211.19" cy="176.97" r="1"/><circle cx="190.75" cy="80.2" r="1"/><circle cx="57.02" cy="52.84" r="1"/><circle cx="55.02" cy="62.26" r="1"/><circle cx="80.86" cy="47.36" r="1"/><circle cx="18.07" cy="177.51" r="1"/><circle cx="199.04" cy="146.54" r="1"/><circle cx="9.91" cy="158.86" r="1"/><circle cx="83.59" cy="45.62" r="1"/><circle cx="217.09" cy="151.66" r="1"/><circle cx="39.21" cy="141.79" r="1"/><circle cx="21.89" cy="91.77" r="1"/><circle cx="50.21" cy="184.28" r="1"/><circle cx="107.6" cy="51.1" r="1"/><circle cx="207.79" cy="98.18" r="1"/><circle cx="173.59" cy="54.02" r="1"/><circle cx="57.89" cy="193.33" r="1"/><circle cx="190.05" cy="194.02" r="1"/><circle cx="184.97" cy="164.29" r="1"/><circle cx="5.22" cy="190.84" r="1"/><circle cx="147.83" cy="36.74" r="1"/><circle cx="217.3" cy="158.68" r="1"/><circle cx="33.55" cy="198.92" r="1"/><circle cx="227.61" cy="176.41" r="1"/><circle cx="210.7" cy="172.18" r="1"/><circle cx="10.31" cy="166.54" r="1"/><circle cx="180.91" cy="164.76" r="1"/><circle cx="192.5" cy="187.94" r="1"/><circle cx="115.68" cy="217.45" r="1"/><circle cx="172.52" cy="177.62" r="1"/><circle cx="135.56" cy="54.65" r="1"/><circle cx="202.32" cy="104.06" r="1"/><circle cx="212.28" cy="138.27" r="1"/><circle cx="221.51" cy="184.89" r="1"/><circle cx="100.61" cy="52.53" r="1"/><circle cx="112.74" cy="54.83" r="1"/><circle cx="54.2" cy="195.84" r="1"/><circle cx="129.04" cy="225.7" r="1"/><circle cx="73.9" cy="38.62" r="1"/><circle cx="106.57" cy="215.22" r="1"/><circle cx="66.7" cy="217.68" r="1"/><circle cx="219.19" cy="173.34" r="1"/><circle cx="74.83" cy="195.61" r="1"/><circle cx="22.75" cy="87.52" r="1"/><circle cx="209.58" cy="94.73" r="1"/><circle cx="87.79" cy="16.67" r="1"/><circle cx="114.54" cy="214.29" r="1"/><circle cx="219.92" cy="170.18" r="1"/><circle cx="214.15" cy="169.52" r="1"/><circle cx="55.26" cy="71.11" r="1"/><circle cx="139.2" cy="205.26" r="1"/><circle cx="218.75" cy="107.51" r="1"/><circle cx="84.2" cy="33.48" r="1"/><circle cx="208.84" cy="82.88" r="1"/><circle cx="106.94" cy="208.55" r="1"/><circle cx="127.85" cy="64.85" r="1"/><circle cx="115.32" cy="49.18" r="1"/><circle cx="209.96" cy="161.05" r="1"/><circle cx="217.65" cy="186.47" r="1"/><circle cx="81.33" cy="28.21" r="1"/><circle cx="94.74" cy="20.5" r="1"/><circle cx="100.29" cy="56.7" r="1"/><circle cx="60.04" cy="162.37" r="1"/><circle cx="42.38" cy="182.53" r="1"/><circle cx="130.23" cy="43.96" r="1"/><circle cx="57.5" cy="164.82" r="1"/><circle cx="185.72" cy="194.17" r="1"/><circle cx="134.72" cy="222.74" r="1"/><circle cx="190.18" cy="84.04" r="1"/><circle cx="133.17" cy="45.78" r="1"/><circle cx="123.18" cy="22.77" r="1"/><circle cx="134.29" cy="14.87" r="1"/><circle cx="208.07" cy="102.72" r="1"/><circle cx="89.36" cy="227.63" r="1"/><circle cx="200.68" cy="65.92" r="1"/><circle cx="189.46" cy="155.19" r="1"/><circle cx="49.74" cy="52.88" r="1"/><circle cx="97.2" cy="62.4" r="1"/><circle cx="171.48" cy="58.75" r="1"/><circle cx="110.47" cy="225.43" r="1"/><circle cx="20.27" cy="118.71" r="1"/><circle cx="201.64" cy="114.77" r="1"/><circle cx="65.01" cy="174.83" r="1"/><circle cx="184.8" cy="204.29" r="1"/><circle cx="25.89" cy="121.35" r="1"/><circle cx="176.18" cy="63.59" r="1"/><circle cx="132.11" cy="206.57" r="1"/><circle cx="22.66" cy="162.02" r="1"/><circle cx="210.86" cy="100.86" r="1"/><circle cx="137.47" cy="6.82" r="1"/><circle cx="204" cy="195.55" r="1"/><circle cx="111.36" cy="230.51" r="1"/><circle cx="177.36" cy="174.18" r="1"/><circle cx="66.11" cy="195.86" r="1"/><circle cx="203.5" cy="143.6" r="1"/><circle cx="134.33" cy="18.39" r="1"/><circle cx="219.16" cy="167.67" r="1"/><circle cx="36.23" cy="157.97" r="1"/><circle cx="79.91" cy="211.59" r="1"/><circle cx="39.64" cy="95.41" r="1"/><circle cx="198.93" cy="80.38" r="1"/><circle cx="140.12" cy="43.67" r="1"/><circle cx="41.87" cy="66.66" r="1"/><circle cx="114.9" cy="63.24" r="1"/><circle cx="218.73" cy="144.96" r="1"/><circle cx="40.63" cy="70.05" r="1"/><circle cx="146.54" cy="17.33" r="1"/><circle cx="12.49" cy="164.62" r="1"/><circle cx="175.02" cy="45.38" r="1"/><circle cx="59.43" cy="158.62" r="1"/><circle cx="122.58" cy="6.1" r="1"/><circle cx="110.42" cy="57.68" r="1"/><circle cx="45.95" cy="86.31" r="1"/><circle cx="193.67" cy="191.26" r="1"/><circle cx="54.39" cy="152.94" r="1"/><circle cx="52.32" cy="158.72" r="1"/><circle cx="24.84" cy="149.62" r="1"/><circle cx="100.24" cy="25.62" r="1"/><circle cx="216.1" cy="202.57" r="1"/><circle cx="202.71" cy="198.46" r="1"/><circle cx="183.66" cy="49.92" r="1"/><circle cx="111" cy="62.63" r="1"/><circle cx="198.24" cy="143.72" r="1"/><circle cx="206.11" cy="155.01" r="1"/><circle cx="26.23" cy="84.73" r="1"/><circle cx="134.28" cy="41.3" r="1"/><circle cx="140.23" cy="49.27" r="1"/><circle cx="230.23" cy="165.74" r="1"/><circle cx="199.99" cy="77.94" r="1"/><circle cx="101.42" cy="29.31" r="1"/><circle cx="25.69" cy="188.72" r="1"/><circle cx="34.33" cy="139.97" r="1"/><circle cx="124.25" cy="212.97" r="1"/><circle cx="109.69" cy="68.01" r="1"/><circle cx="107.81" cy="58.85" r="1"/><circle cx="125.33" cy="7.28" r="1"/><circle cx="5.06" cy="175.1" r="1"/><circle cx="146.07" cy="227" r="1"/><circle cx="20.63" cy="153.25" r="1"/><circle cx="5.08" cy="155.39" r="1"/><circle cx="188.41" cy="49.73" r="1"/><circle cx="96.64" cy="22.84" r="1"/><circle cx="7.45" cy="169.08" r="1"/><circle cx="207.71" cy="149.5" r="1"/><circle cx="167.34" cy="56.8" r="1"/><circle cx="21.01" cy="182.92" r="1"/><circle cx="207.02" cy="180.61" r="1"/><circle cx="216.98" cy="183.55" r="1"/><circle cx="151.58" cy="225.38" r="1"/><circle cx="76.8" cy="215.69" r="1"/><circle cx="228.24" cy="191.24" r="1"/><circle cx="188.19" cy="149.82" r="1"/><circle cx="44.25" cy="147.28" r="1"/><circle cx="77.37" cy="208.88" r="1"/><circle cx="48.32" cy="148.15" r="1"/><circle cx="50.44" cy="188.19" r="1"/><circle cx="193.92" cy="151.83" r="1"/><circle cx="186.27" cy="159.66" r="1"/><circle cx="38.28" cy="80.02" r="1"/><circle cx="119.44" cy="220.62" r="1"/><circle cx="56.25" cy="158.98" r="1"/><circle cx="126.7" cy="15.67" r="1"/><circle cx="39.04" cy="73.5" r="1"/><circle cx="43.65" cy="71.27" r="1"/><circle cx="51.37" cy="155.53" r="1"/><circle cx="14.43" cy="190.1" r="1"/><circle cx="162.96" cy="55.63" r="1"/><circle cx="38.69" cy="184.83" r="1"/><circle cx="131.03" cy="230.35" r="1"/><circle cx="204.31" cy="78.81" r="1"/><circle cx="96.95" cy="57.58" r="1"/><circle cx="187.03" cy="76.3" r="1"/><circle cx="179.85" cy="71.86" r="1"/><circle cx="113.14" cy="207.6" r="1"/><circle cx="123.29" cy="230.23" r="1"/><circle cx="178.4" cy="152.33" r="1"/><circle cx="137.22" cy="38.82" r="1"/><circle cx="60.09" cy="181.37" r="1"/><circle cx="159.5" cy="219.27" r="1"/><circle cx="74.14" cy="202.99" r="1"/><circle cx="24.39" cy="174.01" r="1"/><circle cx="58.39" cy="44.78" r="1"/><circle cx="172.53" cy="66.85" r="1"/><circle cx="25.93" cy="125.41" r="1"/><circle cx="56.71" cy="56.56" r="1"/><circle cx="142.77" cy="35.44" r="1"/><circle cx="146.8" cy="52.61" r="1"/><circle cx="47.03" cy="189.13" r="1"/><circle cx="145.09" cy="46.9" r="1"/><circle cx="73.67" cy="213.63" r="1"/><circle cx="126.34" cy="2.17" r="1"/><circle cx="141.06" cy="46.42" r="1"/><circle cx="106.69" cy="61.78" r="1"/><circle cx="178.29" cy="166.63" r="1"/><circle cx="184.56" cy="151.44" r="1"/><circle cx="140.44" cy="39.94" r="1"/><circle cx="141.32" cy="27.95" r="1"/><circle cx="92.04" cy="39.02" r="1"/><circle cx="32.87" cy="127.36" r="1"/><circle cx="18.39" cy="124.95" r="1"/><circle cx="221.41" cy="148.47" r="1"/><circle cx="179.1" cy="156.94" r="1"/><circle cx="28.75" cy="195.99" r="1"/><circle cx="181.06" cy="171.37" r="1"/><circle cx="202.18" cy="203" r="1"/><circle cx="63.25" cy="163.63" r="1"/><circle cx="134.09" cy="10.1" r="1"/><circle cx="108.85" cy="24.1" r="1"/><circle cx="231.76" cy="177.03" r="1"/><circle cx="59.9" cy="200.72" r="1"/><circle cx="79.2" cy="45.07" r="1"/><circle cx="221.3" cy="158.1" r="1"/><circle cx="56.53" cy="199.14" r="1"/><circle cx="199.15" cy="163.95" r="1"/><circle cx="145.56" cy="206.25" r="1"/><circle cx="63.11" cy="50.37" r="1"/><circle cx="67.75" cy="46.75" r="1"/><circle cx="133.29" cy="218.93" r="1"/><circle cx="137.86" cy="218.11" r="1"/><circle cx="94.33" cy="34.2" r="1"/><circle cx="230.9" cy="160.54" r="1"/><circle cx="84.48" cy="38.18" r="1"/><circle cx="91.55" cy="22.03" r="1"/><circle cx="72.18" cy="41.3" r="1"/></g></svg>