<?xml version="1.0" encoding="UTF-8"?> <!-- Generator: Adobe Illustrator 21.1.0, SVG Export Plug-In . SVG Version: 6.00 Build 0) --> <svg xmlns="http://www.w3.org/2000/svg" xmlns:xlink="http://www.w3.org/1999/xlink" version="1.1" id="Layer_1" x="0px" y="0px" viewBox="0 0 114 114" style="enable-background:new 0 0 114 114;" xml:space="preserve"> <style type="text/css"> .st0{fill:none;stroke:#505050;stroke-width:2;stroke-linecap:round;stroke-linejoin:round;} .st1{fill:none;stroke:#505050;stroke-width:2;stroke-linecap:round;stroke-linejoin:round;stroke-dasharray:0,2.728,0,2.728;} .st2{fill:none;stroke:#505050;stroke-width:2;stroke-linecap:round;stroke-linejoin:round;stroke-dasharray:0,2.728,0,2.728,0,2.728;} .st3{fill:none;stroke:#505050;stroke-width:2;stroke-linecap:round;stroke-linejoin:round;stroke-dasharray:0,2.9171,0,2.9171;} .st4{fill:none;stroke:#505050;stroke-width:2;stroke-linecap:round;stroke-linejoin:round;stroke-dasharray:0,2.9171,0,2.9171,0,2.9171;} .st5{fill:none;stroke:#505050;stroke-width:2;stroke-linecap:round;stroke-linejoin:round;stroke-dasharray:0,3.437,0,3.437;} .st6{fill:none;stroke:#505050;stroke-width:2;stroke-linecap:round;stroke-linejoin:round;stroke-dasharray:0,3.437,0,3.437,0,3.437;} .st7{fill:none;stroke:#505050;stroke-width:2;stroke-linecap:round;stroke-linejoin:round;stroke-dasharray:0,2.9836,0,2.9836;} .st8{fill:none;stroke:#505050;stroke-width:2;stroke-linecap:round;stroke-linejoin:round;stroke-dasharray:0,2.9836,0,2.9836,0,2.9836;} .st9{fill:none;stroke:#505050;stroke-width:2;stroke-linecap:round;stroke-linejoin:round;stroke-dasharray:0,2.3867,0,2.3867;} .st10{fill:none;stroke:#505050;stroke-width:2;stroke-linecap:round;stroke-linejoin:round;stroke-dasharray:0,2.3867,0,2.3867,0,2.3867;} .st11{fill:none;stroke:#505050;stroke-width:2;stroke-linecap:round;stroke-linejoin:round;stroke-dasharray:0,2.9337,0,2.9337;} .st12{fill:none;stroke:#505050;stroke-width:2;stroke-linecap:round;stroke-linejoin:round;stroke-dasharray:0,2.4089,0,2.4089;} .st13{fill:none;stroke:#505050;stroke-width:2;stroke-linecap:round;stroke-linejoin:round;stroke-dasharray:0,2.9316,0,2.9316;} .st14{fill:none;stroke:#505050;stroke-width:2;stroke-linecap:round;stroke-linejoin:round;stroke-dasharray:0,2.9316,0,2.9316,0,2.9316;} .st15{fill:none;stroke:#505050;stroke-width:2;stroke-linecap:round;stroke-linejoin:round;stroke-dasharray:0,2.7753,0,2.7753;} .st16{fill:none;stroke:#505050;stroke-width:2;stroke-linecap:round;stroke-linejoin:round;stroke-dasharray:0,2.7753,0,2.7753,0,2.7753;} .st17{fill:none;stroke:#505050;stroke-width:2;stroke-linecap:round;stroke-linejoin:round;stroke-dasharray:0,3.1642,0,3.1642;} .st18{fill:none;stroke:#505050;stroke-width:2;stroke-linecap:round;stroke-linejoin:round;stroke-dasharray:0,3.1642,0,3.1642,0,3.1642;} .st19{fill:none;stroke:#505050;stroke-width:2;stroke-linecap:round;stroke-linejoin:round;stroke-dasharray:0,2.6955,0,2.6955;} .st20{fill:none;} .st21{fill:none;stroke:#505050;stroke-width:2;stroke-linecap:round;stroke-linejoin:round;stroke-dasharray:0,2.957,0,2.957;} .st22{fill:none;stroke:#505050;stroke-width:2;stroke-linecap:round;stroke-linejoin:round;stroke-dasharray:0,2.957,0,2.957,0,2.957;} .st23{fill:none;stroke:#505050;stroke-width:2;stroke-linecap:round;stroke-linejoin:round;stroke-dasharray:0,2.8686,0,2.8686;} .st24{fill:none;stroke:#505050;stroke-width:2;stroke-linecap:round;stroke-linejoin:round;stroke-dasharray:0,2.8686,0,2.8686,0,2.8686;} .st25{fill:none;stroke:#505050;stroke-width:2;stroke-linecap:round;stroke-linejoin:round;stroke-dasharray:0,2.5778,0,2.5778;} .st26{fill:none;stroke:#505050;stroke-width:2;stroke-linecap:round;stroke-linejoin:round;stroke-dasharray:0,2.5778,0,2.5778,0,2.5778;} .st27{fill:none;stroke:#505050;stroke-width:2;stroke-linecap:round;stroke-linejoin:round;stroke-dasharray:0,2.721,0,2.721;} .st28{fill:none;stroke:#505050;stroke-width:2;stroke-linecap:round;stroke-linejoin:round;stroke-dasharray:0,2.721,0,2.721,0,2.721;} .st29{fill:none;stroke:#505050;stroke-width:2;stroke-linecap:round;stroke-linejoin:round;stroke-dasharray:0,3.2225,0,3.2225;} .st30{fill:none;stroke:#505050;stroke-width:2;stroke-linecap:round;stroke-linejoin:round;stroke-dasharray:0,3.2225,0,3.2225,0,3.2225;} .st31{fill:none;stroke:#505050;stroke-width:2;stroke-linecap:round;stroke-linejoin:round;stroke-dasharray:0,2.751,0,2.751;} .st32{fill:none;stroke:#505050;stroke-width:2;stroke-linecap:round;stroke-linejoin:round;stroke-dasharray:0,3.1447,0,3.1447,0,3.1447;} </style> <g> <g> <g> <line class="st0" x1="64.4" y1="55.9" x2="64.4" y2="55.9"></line> <polyline class="st1" points="66.2,58 67,58.9 67.9,61.6 "></polyline> <path class="st2" d="M68.4,62.9l2.4,7c0.7,2.6-1.1,4.7-3.8,6.6h-7.7"></path> <line class="st0" x1="58" y1="76.5" x2="58" y2="76.5"></line> <line class="st3" x1="57" y1="73.8" x2="55.4" y2="69.7"></line> <path class="st4" d="M54.9,68.4l-0.2-0.4c-0.4-1-1.3-1.7-2.4-1.7H38.6c-5.6,0-9.2,7.7-10.1,11.4"></path> <line class="st0" x1="28.3" y1="79.1" x2="28.3" y2="79.1"></line> <line class="st5" x1="31.8" y1="79.1" x2="36.9" y2="79.1"></line> <line class="st6" x1="38.6" y1="79.1" x2="47.2" y2="79.1"></line> <line class="st0" x1="49" y1="79.1" x2="49" y2="79.1"></line> <path class="st7" d="M50.7,81.5l1,1.3c0.6,0.8,1.5,1.3,2.4,1.4"></path> <path class="st8" d="M55.6,84.3h14l7.7-6.4h7.4c4,0.9,2.5-1.6,1.9-3c-0.8-1.7-2.1-3.2-4.8-3.6"></path> <line class="st0" x1="80.2" y1="71.1" x2="80.2" y2="71.1"></line> <line class="st9" x1="79.1" y1="69" x2="77.4" y2="65.9"></line> <line class="st10" x1="76.8" y1="64.8" x2="74" y2="59.6"></line> <line class="st0" x1="73.4" y1="58.5" x2="73.4" y2="58.5"></line> <polyline class="st11" points="75.5,56.4 76,55.9 76,53.2 "></polyline> <line class="st0" x1="76" y1="50.8" x2="76" y2="50.8"></line> <path class="st12" d="M73.6,50.7c-0.8,0-1.8-0.1-2.6-0.1"></path> <line class="st0" x1="68.8" y1="50.5" x2="68.8" y2="50.5"></line> </g> </g> <g> <g> <line class="st0" x1="33.6" y1="83" x2="33.6" y2="83"></line> <path class="st13" d="M34.8,85.6c0.9,1.2,2.2,2,3.6,2.3"></path> <path class="st14" d="M39.9,88.1C39.9,88.1,39.9,88.1,39.9,88.1c2.6,0,4.8-1.5,5.9-3.7"></path> <line class="st0" x1="46.2" y1="83" x2="46.2" y2="83"></line> </g> </g> <g> <g> <line class="st0" x1="74.4" y1="85.1" x2="74.4" y2="85.1"></line> <path class="st15" d="M76.3,87.1c1,0.7,2.2,1.1,3.6,1.1c0.1,0,0.3,0,0.4,0"></path> <path class="st16" d="M81.7,87.9c2.3-0.6,4-2.5,4.5-4.8"></path> <line class="st0" x1="86.3" y1="81.7" x2="86.3" y2="81.7"></line> </g> </g> <g> <g> <line class="st0" x1="63.1" y1="72.7" x2="63.1" y2="72.7"></line> <path class="st17" d="M62.3,69.6C61.9,68,61.4,66,61.2,65"></path> <path class="st18" d="M60.8,63.5c-0.4-0.9-1-1.3-2.5-2.1c-1.3-0.6-2.9-1.5-4-2.1"></path> <line class="st0" x1="52.8" y1="58.5" x2="52.8" y2="58.5"></line> <line class="st19" x1="52.8" y1="55.8" x2="52.8" y2="52.8"></line> <line class="st0" x1="52.8" y1="50.4" x2="52.8" y2="50.4"></line> </g> </g> <g> <path class="st20" d="M43.8,61.1"></path> </g> <g> <g> <line class="st0" x1="49.9" y1="49.4" x2="49.9" y2="49.4"></line> <path class="st21" d="M52.7,50.4c1.2,0.4,2.8,1,4.2,1.4"></path> <path class="st22" d="M58.3,52.2c0.8,0.2,1.5,0.4,2.1,0.5c2.1,0.5,3.7-0.7,4.7-1.7"></path> <line class="st0" x1="66" y1="49.9" x2="66" y2="49.9"></line> <path class="st23" d="M63.5,48.6c-1.1-0.6-2.5-1.3-3.8-2"></path> <path class="st24" d="M58.4,46c-2-1-3.8-2-4.8-2.5C49,41,44.1,42,43.8,46.9v6.3"></path> <line class="st0" x1="43.8" y1="54.6" x2="43.8" y2="54.6"></line> </g> </g> <g> <g> <line class="st0" x1="43.8" y1="61.1" x2="43.8" y2="61.1"></line> <line class="st25" x1="41.2" y1="61.1" x2="37.4" y2="61.1"></line> <line class="st26" x1="36.1" y1="61.1" x2="29.6" y2="61.1"></line> <line class="st0" x1="28.3" y1="61.1" x2="28.3" y2="61.1"></line> <line class="st27" x1="28.3" y1="58.4" x2="28.3" y2="54.3"></line> <line class="st28" x1="28.3" y1="52.9" x2="28.3" y2="37.9"></line> <line class="st0" x1="28.3" y1="36.6" x2="28.3" y2="36.6"></line> <line class="st29" x1="31.6" y1="36.6" x2="36.4" y2="36.6"></line> <path class="st30" d="M38,36.6h4c1,0,1.8,0.8,1.8,1.8v1.2"></path> <line class="st0" x1="43.8" y1="41.2" x2="43.8" y2="41.2"></line> </g> </g> <g> <g> <line class="st0" x1="43.8" y1="61.1" x2="43.8" y2="61.1"></line> <line class="st31" x1="45.5" y1="58.9" x2="47.5" y2="56.5"></line> <line class="st0" x1="49" y1="54.6" x2="49" y2="54.6"></line> </g> </g> <g> <circle class="st32" cx="53.5" cy="34.7" r="4.5"></circle> </g> </g> </svg> 