<?xml version="1.0" encoding="UTF-8"?> <!-- Generator: Adobe Illustrator 21.1.0, SVG Export Plug-In . SVG Version: 6.00 Build 0) --> <svg xmlns="http://www.w3.org/2000/svg" xmlns:xlink="http://www.w3.org/1999/xlink" version="1.1" id="Layer_1" x="0px" y="0px" viewBox="0 0 114 114" style="enable-background:new 0 0 114 114;" xml:space="preserve"> <style type="text/css"> .st0{fill:none;stroke:#505050;stroke-width:2;stroke-linecap:round;stroke-linejoin:round;stroke-miterlimit:10;stroke-dasharray:0,3,0,3,0,3;} .st1{fill:none;stroke:#505050;stroke-width:2;stroke-linecap:round;stroke-linejoin:round;stroke-dasharray:0,2.6142,0,2.6142,0,2.6142;} </style> <g> <g> <path class="st0" d="M80.1,89.9H28.7c-1.5,0-2.7-1.2-2.7-2.7V40.6c0-1.5,1.2-2.7,2.7-2.7h51.4c1.5,0,2.7,1.2,2.7,2.7v46.6 C82.8,88.7,81.6,89.9,80.1,89.9z"></path> <line class="st0" x1="39.1" y1="28.4" x2="39.1" y2="35.5"></line> <line class="st0" x1="38.8" y1="40.9" x2="38.1" y2="43"></line> <line class="st0" x1="69" y1="40.9" x2="69" y2="43"></line> <line class="st0" x1="69.1" y1="28.4" x2="69.1" y2="34.4"></line> <line class="st0" x1="30.1" y1="44" x2="80.6" y2="43.9"></line> </g> <g> <g> <circle class="st1" cx="37.9" cy="59.4" r="5"></circle> </g> <g> <circle class="st1" cx="54.9" cy="59.4" r="5"></circle> </g> <g> <circle class="st1" cx="70.9" cy="59.4" r="5"></circle> </g> </g> <g> <g> <circle class="st1" cx="37.9" cy="76.1" r="5"></circle> </g> <g> <circle class="st1" cx="54.9" cy="76.1" r="5"></circle> </g> <g> <circle class="st1" cx="70.9" cy="76.1" r="5"></circle> </g> </g> </g> </svg> 