<?xml version="1.0" encoding="UTF-8"?> <!-- Generator: Adobe Illustrator 21.1.0, SVG Export Plug-In . SVG Version: 6.00 Build 0) --> <svg xmlns="http://www.w3.org/2000/svg" xmlns:xlink="http://www.w3.org/1999/xlink" version="1.1" id="Layer_1" x="0px" y="0px" viewBox="0 0 148 131" style="enable-background:new 0 0 148 131;" xml:space="preserve"> <style type="text/css"> .st0{fill:none;stroke:#505050;stroke-width:2;stroke-linecap:round;stroke-linejoin:round;} .st1{fill:none;stroke:#505050;stroke-width:2;stroke-linecap:round;stroke-linejoin:round;stroke-dasharray:0,3.1599,0,3.1599;} .st2{fill:none;stroke:#505050;stroke-width:2;stroke-linecap:round;stroke-linejoin:round;stroke-dasharray:0,3.1599,0,3.1599,0,3.1599;} .st3{fill:none;stroke:#505050;stroke-width:2;stroke-linecap:round;stroke-linejoin:round;stroke-dasharray:0,3.0593,0,3.0593;} .st4{fill:none;stroke:#505050;stroke-width:2;stroke-linecap:round;stroke-linejoin:round;stroke-dasharray:0,3.0593,0,3.0593,0,3.0593;} .st5{fill:none;stroke:#505050;stroke-width:2;stroke-linecap:round;stroke-linejoin:round;stroke-dasharray:0,3.0708,0,3.0708;} .st6{fill:none;stroke:#505050;stroke-width:2;stroke-linecap:round;stroke-linejoin:round;stroke-dasharray:0,3.0708,0,3.0708,0,3.0708;} .st7{fill:none;stroke:#505050;stroke-width:2;stroke-linecap:round;stroke-linejoin:round;stroke-dasharray:0,2.8172,0,2.8172;} .st8{fill:none;stroke:#505050;stroke-width:2;stroke-linecap:round;stroke-linejoin:round;stroke-dasharray:0,2.8172,0,2.8172,0,2.8172;} .st9{fill:none;stroke:#505050;stroke-width:2;stroke-linecap:round;stroke-linejoin:round;stroke-dasharray:0,3.1284,0,3.1284,0,3.1284;} .st10{fill:none;stroke:#505050;stroke-width:2;stroke-linecap:round;stroke-linejoin:round;stroke-dasharray:0,2.7596,0,2.7596;} .st11{fill:none;stroke:#505050;stroke-width:2;stroke-linecap:round;stroke-linejoin:round;stroke-dasharray:0,2.7596,0,2.7596,0,2.7596;} </style> <g> <g> <g> <line class="st0" x1="54.4" y1="42.8" x2="54.4" y2="42.8"></line> <line class="st1" x1="57.5" y1="42.8" x2="62.3" y2="42.8"></line> <line class="st2" x1="63.9" y1="42.8" x2="81.2" y2="42.8"></line> <line class="st0" x1="82.8" y1="42.8" x2="82.8" y2="42.8"></line> </g> </g> <g> <g> <line class="st0" x1="41" y1="98.2" x2="41" y2="98.2"></line> <line class="st3" x1="43.8" y1="97.1" x2="48.1" y2="95.4"></line> <polyline class="st4" points="49.5,95.7 56,98.2 93.4,98.2 "></polyline> <line class="st0" x1="94.9" y1="98.2" x2="94.9" y2="98.2"></line> <line class="st5" x1="94.9" y1="95.2" x2="94.9" y2="90.6"></line> <path class="st6" d="M94.9,89V64.5c0-5.3-1.6-10.5-4.5-15l-4.5-6.7v-6c0-0.8-0.7-1.5-1.5-1.5H50c-0.8,0-1.5,0.7-1.5,1.5v6 l-4.1,7.4c-2.2,4-3.4,8.5-3.4,13.1v33.4"></path> </g> </g> <g> <g> <line class="st0" x1="56" y1="95.2" x2="56" y2="95.2"></line> <line class="st7" x1="56" y1="92.4" x2="56" y2="88.2"></line> <path class="st8" d="M56,86.8l0-23.5c0-4.6-1.2-9.1-3.4-13.1l-1.7-3.3"></path> <line class="st0" x1="50.2" y1="45.7" x2="50.2" y2="45.7"></line> </g> </g> <g> <ellipse transform="matrix(0.7071 -0.7071 0.7071 0.7071 -29.3615 74.6628)" class="st9" cx="75.4" cy="72.8" rx="13.1" ry="10.8"></ellipse> </g> <g> <g> <line class="st0" x1="82.3" y1="64.3" x2="82.3" y2="64.3"></line> <path class="st10" d="M79.7,65.1c-1.6,0.7-2.7,1.5-3.4,2.3"></path> <path class="st11" d="M75.6,68.7c-1.7,4.4,3.2,10.1-5.4,12.2"></path> <line class="st0" x1="68.8" y1="81.1" x2="68.8" y2="81.1"></line> </g> </g> </g> </svg> 