<?xml version="1.0" encoding="UTF-8"?> <svg xmlns="http://www.w3.org/2000/svg" viewBox="0 0 10.39 10.39"><defs><style>.cls-1{fill:#d4ca9f;}</style></defs><g id="Layer_2" data-name="Layer 2"><g id="_16" data-name="16"><path class="cls-1" d="M7.87,0H2.52A2.52,2.52,0,0,0,0,2.52V7.87a2.52,2.52,0,0,0,2.52,2.52H7.87a2.52,2.52,0,0,0,2.52-2.52V2.52A2.52,2.52,0,0,0,7.87,0Zm0,9.53H2.52A1.66,1.66,0,0,1,.86,7.87V2.52A1.67,1.67,0,0,1,2.52.86H7.87A1.67,1.67,0,0,1,9.54,2.52V7.87A1.66,1.66,0,0,1,7.87,9.53Z"></path><path class="cls-1" d="M5.19,2.33A2.87,2.87,0,1,0,8.06,5.19,2.86,2.86,0,0,0,5.19,2.33ZM7.27,5.19A2.08,2.08,0,1,1,5.19,3.12,2.08,2.08,0,0,1,7.27,5.19Z"></path></g></g></svg> 