<svg viewBox="0 0 54.73 41.07" xmlns="http://www.w3.org/2000/svg"><g fill="#d4ca9f"><path d="m5.86 27.25.22.93-1.47 2.61-1.84-3.54h-1.95l.31 1.01-1.13 6.07h1.61l.69-4.65 1.97 4.02h.35l1.89-3.8.77 4.43h1.78l-1.32-7.08z"/><path d="m53.26 27.25v3.94l-3.14-3.94h-2.2l.44 1.1v6h1.46v-4.63l3.58 4.61h1.33v-7.08z"/><path d="m20 27.25h-1.44v3.94l-3.15-3.94h-2.2l.44 1.1v6h1.47v-4.63l3.59 4.61h1.29z"/><path d="m43.89 33.32v-2.44h.61l1.85.27v-1.25l-1.85.18h-.61v-1.82h2l1.21.27-.1-1.28h-5.21l.28 1.27v5.81h5.1l.13-1.6-2 .59z"/><path d="m31.67 27.25-.11 1.27 2.23-.35v6.17h1.83v-6.17l2.23.35-.11-1.27z"/><path d="m11.9 27.25h-2.25l.43 1.1v5.99h1.82z"/><path d="m40.54 27.25h-2.25l.43 1.1v5.99h1.82z"/><path d="m26.4 28.47v1.53h-2.9v-2.75h-2.17l.35 1.22v5.87h1.82v-3.11h2.9v3.11h1.82v-7.09h-2.17z"/><path d="m16.42 38.31a.86.86 0 0 1 .78.46l.57-.32a1.57 1.57 0 0 0 -1.35-.73 1.53 1.53 0 0 0 -1.17.49 1.77 1.77 0 0 0 0 2.38 1.64 1.64 0 0 0 2.52-.25l-.57-.34a.85.85 0 0 1 -.78.46.83.83 0 0 1 -.68-.31 1.33 1.33 0 0 1 0-1.55.86.86 0 0 1 .68-.29z"/><path d="m21.2 37.72a1.69 1.69 0 0 0 -1.2 2.87 1.66 1.66 0 0 0 1.22.48 1.68 1.68 0 0 0 1.21-2.86 1.61 1.61 0 0 0 -1.23-.49zm.72 2.45a.92.92 0 0 1 -.72.31.9.9 0 0 1 -.72-.31 1.21 1.21 0 0 1 0-1.55.93.93 0 0 1 .72-.31 1 1 0 0 1 .72.31 1.25 1.25 0 0 1 0 1.55z"/><path d="m24.88 41.03h.7v-1.41h1.26v-.59h-1.26v-.68h1.58v-.59h-2.28z"/><path d="m29.03 41.03h.7v-1.41h1.26v-.59h-1.26v-.68h1.58v-.59h-2.28z"/><path d="m33.89 39.62h1.36v-.59h-1.36v-.68h1.69v-.59h-2.39v3.27h2.41v-.59h-1.71z"/><path d="m38.23 39.62h1.36v-.59h-1.36v-.68h1.68v-.59h-2.39v3.27h2.42v-.59h-1.71z"/><path d="m39.67 13-2-8.26a6.09 6.09 0 0 0 -7.41-4.42 6.31 6.31 0 0 0 -2.26 1.07 5.94 5.94 0 0 0 -2.15-1.15 6 6 0 0 0 -4.65.55 6.17 6.17 0 0 0 -2.91 3.67l-2.29 8.11a6.09 6.09 0 0 0 5.74 7.77 6 6 0 0 0 2.28-.4 6.09 6.09 0 0 0 2.94-2.38c.07-.11.39-.74.84-1.64.42.92.71 1.56.78 1.67a6.07 6.07 0 0 0 2.85 2.49 6.14 6.14 0 0 0 3.85.32 6.1 6.1 0 0 0 4.39-7.4zm-2.21 3.69a4.31 4.31 0 0 1 -7.4 0c-.11-.19-.61-1.31-1.29-2.83.8-1.62 1.71-3.48 2.43-5l2 6.83h1.85l-3.05-10.15h-1.15l-.28.59c-.84 1.7-1.86 3.8-2.78 5.66l-2.51-5.79-.28-.64h-1.12l-3.46 10.13h1.86l2.3-6.75c.66 1.51 1.5 3.4 2.24 5.05-.74 1.5-1.29 2.59-1.4 2.78a4.35 4.35 0 0 1 -2.08 1.68 4.22 4.22 0 0 1 -2.74.11 4.32 4.32 0 0 1 -3-5.34l2.4-8.02a4.39 4.39 0 0 1 2.08-2.62 4.25 4.25 0 0 1 3.29-.39 4.32 4.32 0 0 1 2 1.24l.63.7.65-.67a4.31 4.31 0 0 1 2.04-1.26 4.31 4.31 0 0 1 5.22 3.2l2.09 8.25a4.31 4.31 0 0 1 -.54 3.27z"/></g></svg>